<?xml version="1.0" encoding="utf-8"?>
<svg width="640" height="480" xmlns="http://www.w3.org/2000/svg">
  <title>BEER FOAM</title>
  <g transform="matrix(1, 0, 0, 1, 15.485084, -12.535543)">
    <title>Layer 1</title>
    <g id="svg_1">
      <path d="M -15.836 233.417 C -22.023 240.936 487.175 247.224 486.955 231.625 C 505.88 224.622 508.61 155.606 481.132 158.697 C 500.893 156.009 495.032 128.877 478.553 126.383 C 482.666 137.964 500.516 86.243 454.742 108.852 C 438.626 68.66 423.506 106.057 423.922 117.43 C 423.865 99.782 408.82 86.024 398.136 89.513 C 404.763 80.789 364.805 73.639 356.482 87.768 C 361.457 69.296 305.607 57.525 304.249 67.994 C 297.809 59.852 260.888 59.703 250.032 88.35 C 250.032 72.6 189.955 65.668 191.187 89.513 C 178.331 81.629 157.196 90.676 158.789 99.982 C 144.542 75.982 88.8 98.12 94.61 120.598 C 57.658 98.13 1.877 154.551 39.217 167.36 C 0.306 143.284 -28.866 217.816 -15.836 233.417 Z" id="path844" stroke-linejoin="round" stroke-width="1pt" stroke="black" fill-rule="evenodd" fill="#ffffff"/>
      <path d="M 162.681 157.774 C 157.121 152.43 167.181 134.963 178.311 135.862 C 180.847 127.845 187.837 126.489 195.578 128.774 C 191.719 122.147 201.116 115.839 209.393 123.324 C 214.981 114.828 226.624 108.272 232.808 112.853 C 232.322 101.924 255.144 90.839 263.498 100.42 C 263.498 102.384 262.162 106.496 263.498 106.496" id="path846" fill-opacity="0.75" stroke-linejoin="round" stroke-width="1pt" stroke="black" fill-rule="evenodd" fill="none"/>
      <path d="M 304.606 134.262 C 304.224 118.964 356.214 106.425 346.049 133.249 C 350.724 131.193 371.375 129.04 367.577 140.745 C 382.767 139.236 405.853 144.325 392.12 162.417 C 400.946 168.269 397.021 184.115 390.945 178.817" id="path847" fill-opacity="0.75" stroke-linejoin="round" stroke-width="1pt" stroke="black" fill-rule="evenodd" fill="none"/>
    </g>
  </g>
</svg>