<?xml version="1.0" encoding="utf-8"?>
<!-- Generator: Adobe Illustrator 17.0.0, SVG Export Plug-In . SVG Version: 6.00 Build 0)  -->
<!DOCTYPE svg PUBLIC "-//W3C//DTD SVG 1.1//EN" "http://www.w3.org/Graphics/SVG/1.1/DTD/svg11.dtd">
<svg version="1.1" id="Layer_1" xmlns="http://www.w3.org/2000/svg" xmlns:xlink="http://www.w3.org/1999/xlink" x="0px" y="0px"
	 width="681.818px" height="224.242px" viewBox="0 0 681.818 224.242" enable-background="new 0 0 681.818 224.242"
	 xml:space="preserve">
<g>
	<path fill="#343434" d="M87.352,117.355h0.004h2.081c0.187-0.342,0.302-0.736,0.295-1.155c-0.03-1.719-1.759-1.944-2.273-3.1
		c0.228-0.049,0.404-0.244,0.404-0.487c0-0.228-0.152-0.413-0.358-0.478l-0.149-3.436l-0.152,3.436
		c-0.205,0.065-0.356,0.25-0.356,0.477c0,0.242,0.174,0.437,0.402,0.487c-0.513,1.156-2.242,1.381-2.274,3.1
		c-0.006,0.419,0.107,0.812,0.296,1.155L87.352,117.355L87.352,117.355z"/>
	<path fill="#343434" d="M85.445,119.501h0.264c0.048-0.899,0.259-1.575,0.509-1.575c0.253,0,0.459,0.676,0.51,1.575h0.23
		c0.051-0.899,0.26-1.575,0.511-1.575s0.46,0.676,0.51,1.575h0.23c0.05-0.899,0.259-1.575,0.51-1.575
		c0.252,0,0.461,0.676,0.511,1.575h0.201v-1.932h-3.987L85.445,119.501L85.445,119.501z"/>
	<path fill="#343434" d="M67.314,133.94h0.009h3.974c0.36-0.655,0.577-1.406,0.562-2.206c-0.062-3.508-3.857-3.732-4.537-6.375
		v-0.028c-0.001,0.005-0.003,0.009-0.005,0.014c-0.001-0.005-0.003-0.009-0.005-0.014v0.028c-0.679,2.642-4.474,2.867-4.537,6.374
		c-0.014,0.8,0.204,1.551,0.563,2.206h3.976V133.94z"/>
	<path fill="#343434" d="M78.412,132.919L78.412,132.919h0.774c0.069-0.129,0.112-0.274,0.109-0.43
		c-0.012-0.683-0.752-0.724-0.881-1.24v-0.002v0.001v-0.001v0.002c-0.13,0.515-0.869,0.557-0.883,1.24
		c-0.001,0.156,0.04,0.301,0.109,0.43H78.412z"/>
	<path fill="#343434" d="M75.774,128.801h0.002h0.771c0.07-0.127,0.112-0.272,0.11-0.429c-0.013-0.682-0.752-0.726-0.881-1.24
		v-0.004c0,0.001-0.001,0.001-0.001,0.002c0-0.001-0.001-0.001-0.001-0.002v0.004c-0.132,0.514-0.87,0.558-0.882,1.24
		c-0.002,0.156,0.039,0.302,0.11,0.429H75.774z"/>
	<path fill="#343434" d="M9.876,117.355H9.88h2.08c0.189-0.342,0.302-0.736,0.296-1.155c-0.032-1.719-1.761-1.944-2.274-3.1
		c0.229-0.05,0.403-0.245,0.403-0.487c0-0.227-0.151-0.412-0.356-0.477L9.876,108.7l-0.149,3.436
		c-0.206,0.065-0.358,0.25-0.358,0.478c0,0.243,0.175,0.438,0.404,0.487c-0.514,1.156-2.243,1.381-2.273,3.1
		c-0.008,0.419,0.108,0.812,0.295,1.155L9.876,117.355L9.876,117.355z"/>
	<path fill="#343434" d="M7.8,119.501h0.201c0.05-0.899,0.259-1.575,0.511-1.575c0.251,0,0.46,0.676,0.51,1.575h0.23
		c0.05-0.899,0.26-1.575,0.51-1.575c0.251,0,0.46,0.676,0.511,1.575h0.23c0.051-0.899,0.258-1.575,0.51-1.575
		c0.25,0,0.461,0.676,0.509,1.575h0.264v-1.932H7.8V119.501z"/>
	<path fill="#343434" d="M37.729,126.414h10.853h0.029h0.01h0.029h10.853h1.336c1.101-2.01,1.769-4.316,1.727-6.771
		c-0.185-10.476-11.238-11.397-13.739-18.921c0.446-0.077,0.79-0.448,0.79-0.913c0-0.438-0.301-0.79-0.704-0.899
		c0.643-0.115,1.131-0.674,1.131-1.349c0-0.615-0.408-1.13-0.966-1.304l-0.195-4.459c0.245-0.088,0.421-0.316,0.421-0.589
		c0-0.293-0.202-0.528-0.473-0.6l-0.159-3.621l-0.055,1.249l-0.055-1.249l-0.159,3.621c-0.271,0.072-0.473,0.308-0.473,0.6
		c0,0.273,0.176,0.501,0.421,0.589l-0.195,4.459c-0.558,0.174-0.966,0.689-0.966,1.304c0,0.675,0.489,1.234,1.131,1.349
		c-0.403,0.109-0.704,0.461-0.704,0.899c0,0.465,0.344,0.836,0.79,0.913c-2.501,7.524-13.554,8.445-13.739,18.921
		c-0.043,2.455,0.625,4.761,1.727,6.771H37.729z"/>
	<path fill="#343434" d="M29.909,133.94h0.009h3.975c0.359-0.655,0.577-1.406,0.563-2.206c-0.063-3.508-3.858-3.732-4.537-6.374
		v-0.028c-0.001,0.005-0.003,0.009-0.005,0.014c-0.001-0.005-0.003-0.009-0.005-0.014v0.028c-0.68,2.642-4.475,2.867-4.537,6.375
		c-0.015,0.8,0.203,1.551,0.562,2.206h3.975V133.94z"/>
	<path fill="#343434" d="M18.82,132.919L18.82,132.919h0.775c0.069-0.129,0.11-0.274,0.109-0.43
		c-0.014-0.683-0.753-0.724-0.883-1.24v-0.002v0.001v-0.001v0.002c-0.129,0.516-0.87,0.557-0.881,1.24
		c-0.003,0.156,0.039,0.301,0.109,0.43H18.82z"/>
	<path fill="#343434" d="M21.456,128.801h0.002h0.773c0.071-0.127,0.112-0.272,0.11-0.429c-0.012-0.682-0.75-0.726-0.882-1.24
		v-0.004c0,0.001-0.001,0.001-0.001,0.002c0-0.001-0.001-0.001-0.001-0.002v0.004c-0.13,0.514-0.868,0.558-0.881,1.24
		c-0.002,0.156,0.04,0.302,0.11,0.429H21.456z"/>
	<path fill="#343434" d="M349.008,116.2c-0.03-1.719-1.759-1.944-2.273-3.1c0.228-0.049,0.404-0.244,0.404-0.487
		c0-0.228-0.152-0.413-0.358-0.478l-0.149-3.436l-0.152,3.436c-0.205,0.065-0.357,0.25-0.357,0.477c0,0.242,0.174,0.436,0.403,0.487
		c-0.513,1.156-2.242,1.381-2.274,3.1c-0.006,0.419,0.107,0.812,0.296,1.155h2.08h0.004h2.081
		C348.901,117.013,349.016,116.619,349.008,116.2z"/>
	<path fill="#343434" d="M344.721,119.501h0.264c0.048-0.899,0.259-1.575,0.509-1.575c0.253,0,0.459,0.676,0.51,1.575h0.23
		c0.051-0.899,0.26-1.575,0.511-1.575c0.251,0,0.46,0.676,0.51,1.575h0.23c0.05-0.899,0.259-1.575,0.51-1.575
		c0.252,0,0.461,0.676,0.511,1.575h0.201v-1.932h-3.987L344.721,119.501L344.721,119.501z"/>
	<path fill="#343434" d="M326.59,133.94h0.009h3.974c0.36-0.655,0.577-1.406,0.562-2.206c-0.062-3.508-3.857-3.732-4.537-6.375
		v-0.028c-0.001,0.005-0.003,0.009-0.005,0.014c-0.001-0.005-0.003-0.009-0.005-0.014v0.028c-0.679,2.642-4.474,2.867-4.537,6.374
		c-0.014,0.8,0.204,1.551,0.563,2.206h3.976V133.94z"/>
	<path fill="#343434" d="M337.688,131.249v-0.001V131.249c-0.13,0.516-0.869,0.558-0.883,1.241c-0.001,0.156,0.04,0.301,0.109,0.43
		h0.774h0.001h0.773c0.069-0.129,0.112-0.274,0.109-0.43c-0.012-0.683-0.752-0.724-0.881-1.24v-0.002
		C337.688,131.248,337.688,131.248,337.688,131.249z"/>
	<path fill="#343434" d="M335.05,128.801h0.002h0.771c0.07-0.127,0.112-0.272,0.11-0.429c-0.013-0.682-0.752-0.726-0.881-1.24
		v-0.004c0,0.001-0.001,0.001-0.001,0.002c0-0.001-0.001-0.001-0.001-0.002v0.004c-0.132,0.514-0.87,0.558-0.882,1.24
		c-0.002,0.156,0.039,0.302,0.11,0.429H335.05z"/>
	<path fill="#343434" d="M269.152,117.355h0.004h2.08c0.189-0.342,0.302-0.736,0.296-1.155c-0.032-1.719-1.761-1.944-2.274-3.1
		c0.229-0.05,0.403-0.245,0.403-0.487c0-0.227-0.151-0.412-0.357-0.477l-0.152-3.436l-0.149,3.436
		c-0.206,0.065-0.358,0.25-0.358,0.478c0,0.243,0.175,0.438,0.404,0.487c-0.514,1.156-2.243,1.381-2.274,3.1
		c-0.008,0.419,0.108,0.812,0.295,1.155L269.152,117.355L269.152,117.355z"/>
	<path fill="#343434" d="M267.076,119.501h0.201c0.05-0.899,0.259-1.575,0.511-1.575c0.251,0,0.46,0.676,0.51,1.575h0.23
		c0.05-0.899,0.26-1.575,0.51-1.575c0.251,0,0.46,0.676,0.511,1.575h0.23c0.051-0.899,0.258-1.575,0.51-1.575
		c0.25,0,0.461,0.676,0.509,1.575h0.264v-1.932h-3.987L267.076,119.501L267.076,119.501z"/>
	<path fill="#343434" d="M297.005,126.414h10.853h0.029h0.01h0.029h10.853h1.336c1.101-2.01,1.769-4.316,1.727-6.771
		c-0.185-10.476-11.238-11.397-13.739-18.921c0.446-0.077,0.79-0.448,0.79-0.913c0-0.438-0.301-0.79-0.704-0.899
		c0.643-0.115,1.131-0.674,1.131-1.349c0-0.615-0.408-1.13-0.966-1.304l-0.195-4.459c0.245-0.088,0.421-0.316,0.421-0.589
		c0-0.293-0.202-0.528-0.473-0.6l-0.159-3.621l-0.055,1.249l-0.055-1.249l-0.159,3.621c-0.271,0.072-0.473,0.308-0.473,0.6
		c0,0.273,0.176,0.501,0.421,0.589l-0.195,4.459c-0.558,0.174-0.966,0.689-0.966,1.304c0,0.675,0.489,1.234,1.131,1.349
		c-0.403,0.109-0.704,0.461-0.704,0.899c0,0.465,0.344,0.836,0.79,0.913c-2.501,7.524-13.554,8.445-13.739,18.921
		c-0.043,2.455,0.625,4.761,1.727,6.771H297.005z"/>
	<path fill="#343434" d="M289.184,133.94h0.009h3.975c0.359-0.655,0.577-1.406,0.563-2.206c-0.063-3.508-3.858-3.732-4.537-6.374
		v-0.028c-0.001,0.005-0.003,0.009-0.005,0.014c-0.001-0.005-0.003-0.009-0.005-0.014v0.028c-0.68,2.642-4.475,2.867-4.537,6.375
		c-0.015,0.8,0.203,1.551,0.562,2.206h3.975V133.94z"/>
	<path fill="#343434" d="M278.095,132.919L278.095,132.919h0.775c0.069-0.129,0.11-0.274,0.109-0.43
		c-0.014-0.683-0.753-0.724-0.883-1.24v-0.002v0.001v-0.001v0.002c-0.129,0.515-0.869,0.557-0.881,1.24
		c-0.003,0.156,0.039,0.301,0.109,0.43H278.095z"/>
	<path fill="#343434" d="M280.732,128.801h0.002h0.773c0.071-0.127,0.112-0.272,0.11-0.429c-0.012-0.682-0.75-0.726-0.882-1.24
		v-0.004c0,0.001-0.001,0.001-0.001,0.002c0-0.001-0.001-0.001-0.001-0.002v0.004c-0.13,0.514-0.868,0.558-0.881,1.24
		c-0.002,0.156,0.04,0.302,0.11,0.429H280.732z"/>
	<path fill="#343434" d="M172.769,114.877c0.495-0.634,1.106-1.002,1.785-1.002c0.807,0,1.537,0.518,2.079,1.434
		c0.813-0.914,1.883-1.434,3.036-1.434c1.273,0,2.455,0.643,3.29,1.739c0.835-1.096,2.018-1.739,3.291-1.739
		c1.145,0,2.207,0.512,3.018,1.415c0.526-0.905,1.233-1.415,2.017-1.415c0.622,0,1.187,0.323,1.654,0.888L192.27,107h-18.824
		L172.769,114.877z"/>
	<path fill="#343434" d="M181.459,119.156c0.001-0.037,0.002-0.072,0.002-0.107c0-1.361-0.843-2.511-1.84-2.511
		c-0.998,0-1.841,1.15-1.841,2.511c0,0.035,0.001,0.07,0.002,0.107H181.459z"/>
	<path fill="#343434" d="M175.68,119.049c0-1.361-0.515-2.511-1.123-2.511c-0.609,0-1.124,1.15-1.124,2.511
		c0,0.035,0,0.07,0.001,0.107h2.246C175.68,119.119,175.68,119.084,175.68,119.049z"/>
	<path fill="#343434" d="M192.497,119.156c0-0.037,0.001-0.072,0.001-0.107c0-1.361-0.515-2.511-1.124-2.511
		s-1.124,1.15-1.124,2.511c0,0.035,0,0.07,0.001,0.107H192.497z"/>
	<path fill="#343434" d="M188.04,119.156c0.002-0.037,0.002-0.072,0.002-0.107c0-1.362-0.843-2.511-1.84-2.511
		s-1.841,1.149-1.841,2.511c0,0.035,0.001,0.07,0.003,0.107H188.04z"/>
	<path fill="#343434" d="M177.066,123.79h4.202c0.001-0.036,0.002-0.072,0.002-0.107c0-1.36-0.963-2.51-2.103-2.51
		c-1.141,0-2.104,1.151-2.104,2.51C177.063,123.718,177.064,123.754,177.066,123.79z"/>
	<path fill="#343434" d="M192.599,121.172c-0.696,0-1.286,1.151-1.286,2.51c0,0.035,0,0.071,0.003,0.107h2.566
		c0.001-0.036,0.001-0.072,0.001-0.107C193.883,122.323,193.294,121.172,192.599,121.172z"/>
	<path fill="#343434" d="M186.688,121.172c-1.14,0-2.103,1.148-2.103,2.51c0,0.035,0,0.071,0.002,0.107h4.202
		c0.001-0.036,0.003-0.072,0.003-0.107C188.793,122.321,187.828,121.172,186.688,121.172z"/>
	<path fill="#343434" d="M151.297,110.273c-0.166,0.855-0.383,1.636-0.653,2.335c0.293,0.009,0.59,0.029,0.889,0.057
		c0.006,0.001,0.013,0.001,0.02,0.002c0.089,0.007,0.178,0.013,0.267,0.024c0.204,0.028,0.402,0.058,0.6,0.091
		c-0.284-0.738-0.505-1.565-0.665-2.478c0.816-0.058,1.463-0.732,1.463-1.563c0-0.705-0.466-1.294-1.105-1.494L151.916,96.1
		l-0.708,11.136c-0.654,0.19-1.136,0.788-1.136,1.504C150.072,109.49,150.596,110.114,151.297,110.273z"/>
	<path fill="#343434" d="M165.011,111.242c0.444,0,0.803-0.36,0.803-0.802c0-0.36-0.239-0.652-0.564-0.755l-0.101-5.695
		l-0.361,5.692c-0.332,0.098-0.579,0.393-0.579,0.758C164.21,110.882,164.568,111.242,165.011,111.242z"/>
	<path fill="#343434" d="M201.833,129.338h1.655c-0.142-1.705-0.345-4.743-0.345-8.212c0-3.395,0.193-6.361,0.335-8.085
		c0.068,0.009,0.134,0.021,0.204,0.021c0.868,0,1.574-0.705,1.574-1.574c0-0.704-0.467-1.294-1.106-1.494l-0.197-11.146
		l-0.708,11.136c-0.655,0.191-1.136,0.789-1.136,1.503c0,0.785,0.576,1.431,1.328,1.55c-0.312,1.665-0.888,2.95-1.603,3.99
		c-0.094,0.138-0.192,0.273-0.29,0.403c-0.217,1.381-0.487,3.51-0.554,5.897c-0.119,2.455,0.09,4.636,0.273,6.012h0.57V129.338z"/>
	<path fill="#343434" d="M197.651,129.338h0.604c-0.726-1.24-1.523-3.156-1.422-5.63c0.024-0.518,0.086-1.01,0.172-1.478
		c-0.063,0.09-0.123,0.183-0.181,0.278c-0.516,0.842-0.85,1.826-0.873,3.1c-0.015,0.879,0.382,1.897,0.873,2.693
		C197.089,128.731,197.381,129.095,197.651,129.338z"/>
	<path fill="#343434" d="M199.777,129.338h0.235h0.882c-0.452-1.352-0.979-3.501-0.866-6.044c0.062-2.015,0.457-3.77,0.861-5.08
		c-0.286,0.318-0.58,0.615-0.877,0.901c-0.078,0.075-0.157,0.151-0.235,0.226c-0.546,0.514-1.089,0.996-1.588,1.496
		c-0.205,0.879-0.358,1.861-0.396,2.911c-0.128,2.305,0.425,4.293,0.909,5.59H199.777z"/>
	<path fill="#343434" d="M204.103,121.126c0,3.469-0.203,6.507-0.345,8.212h1.609h0.6c0.187-1.377,0.412-3.653,0.277-6.223
		c-0.072-2.17-0.305-4.13-0.513-5.517c-0.124-0.158-0.245-0.321-0.363-0.491c-0.727-1.05-1.312-2.335-1.596-4.037
		C203.913,114.802,204.103,117.762,204.103,121.126z"/>
	<path fill="#343434" d="M208.822,129.338h0.775c0.259-0.274,0.554-0.66,0.826-1.103c0.483-0.788,0.887-1.763,0.873-2.627
		c-0.023-1.257-0.358-2.229-0.873-3.06c-0.037-0.06-0.076-0.121-0.116-0.179c0.048,0.343,0.089,0.691,0.106,1.06
		C210.523,126.097,209.586,128.12,208.822,129.338z"/>
	<path fill="#343434" d="M206.301,129.338h0.922h0.247h0.966c0.504-1.279,1.155-3.389,1.017-5.871
		c-0.031-0.88-0.146-1.708-0.302-2.471c-0.526-0.526-1.103-1.027-1.681-1.561c-0.082-0.078-0.164-0.153-0.247-0.231
		c-0.256-0.241-0.509-0.492-0.757-0.756c0.354,1.255,0.674,2.841,0.738,4.63c0.014,0.275,0.019,0.545,0.019,0.81v0.009
		C207.218,126.203,206.717,128.126,206.301,129.338z"/>
	<path fill="#343434" d="M182.751,76.494h0.006h2.609c0.314-0.331,0.753-1.039,0.743-1.632c-0.046-2.586-3.093-2.423-3.352-6.022
		v-0.054c-0.001,0.009-0.003,0.016-0.003,0.025c-0.001-0.009-0.002-0.016-0.003-0.025v0.045c-0.337,3.578-3.307,3.442-3.353,6.031
		c-0.01,0.593,0.406,1.33,0.744,1.632L182.751,76.494L182.751,76.494z"/>
	<rect x="180.389" y="77.278" fill="#343434" width="4.755" height="4.592"/>
	<path fill="#343434" d="M210.307,131.113v-1.036c0-0.21-0.172-0.381-0.381-0.381H197.37c-0.211,0-0.382,0.171-0.382,0.381v1.036
		c0,0.213,0.171,0.383,0.382,0.383h12.556C210.135,131.496,210.307,131.326,210.307,131.113z"/>
	<rect x="171.917" y="104.516" fill="#343434" width="21.467" height="1.91"/>
	<path fill="#343434" d="M163.205,140.9c-0.858,0-1.554,1.146-1.554,2.562c0,0.237,0.021,0.462,0.058,0.678h2.994
		c0.035-0.216,0.057-0.441,0.057-0.678C164.76,142.046,164.063,140.9,163.205,140.9z"/>
	<path fill="#343434" d="M167.141,140.9c-0.858,0-1.554,1.146-1.554,2.562c0,0.237,0.021,0.462,0.057,0.678h2.995
		c0.036-0.216,0.056-0.441,0.056-0.678C168.694,142.046,167.999,140.9,167.141,140.9z"/>
	<path fill="#343434" d="M161.1,143.461c0-0.225-0.012-0.442-0.032-0.65c-0.106-1.1-0.473-1.912-0.911-1.912
		c-0.503,0-0.91,1.073-0.937,2.422c-0.001,0.047-0.005,0.091-0.005,0.14c0,0.036,0.005,0.067,0.005,0.103v0.606h1.806
		c-0.001-0.01-0.003-0.02-0.004-0.031h0.043C161.088,143.923,161.1,143.698,161.1,143.461z"/>
	<path fill="#343434" d="M171.026,144.17v-0.031h0.014c0.021-0.216,0.034-0.441,0.034-0.678c0-0.276-0.02-0.535-0.048-0.782
		c-0.118-1.03-0.456-1.779-0.862-1.779c-0.398,0-0.736,0.722-0.859,1.726c-0.033,0.262-0.05,0.543-0.05,0.836
		c0,0.237,0.011,0.462,0.032,0.678h0.091c-0.001,0.011-0.002,0.021-0.003,0.031L171.026,144.17L171.026,144.17z"/>
	<path fill="#343434" d="M156.502,146.533v-13.32h-10.956v13.32L156.502,146.533L156.502,146.533z M151.387,136.815
		c0-0.682,0.518-1.233,1.156-1.233c0.639,0,1.156,0.552,1.156,1.233v7.099h-2.312L151.387,136.815L151.387,136.815z
		 M148.094,136.815c0-0.682,0.517-1.233,1.156-1.233s1.156,0.552,1.156,1.233v7.099h-2.312L148.094,136.815L148.094,136.815z"/>
	<path fill="#343434" d="M200.893,140.156c1.099,0,2.118,0.54,2.856,1.462c0.739-0.923,1.758-1.462,2.858-1.462
		c0.9,0,1.742,0.356,2.424,0.995v-9.332H198.33v9.477C199.035,140.571,199.929,140.156,200.893,140.156z"/>
	<path fill="#343434" d="M145.705,130.541h1.206c-0.095-0.586-0.133-1.224-0.109-1.902c-0.525-0.235-1.018-0.489-1.482-0.756
		C145.357,128.874,145.509,129.773,145.705,130.541z"/>
	<path fill="#343434" d="M151.533,130.46c0.006-0.014,0.014-0.027,0.02-0.04c0.062-0.115,0.125-0.232,0.188-0.351
		c-0.061-0.011-0.124-0.019-0.188-0.03c-0.006-0.002-0.014-0.002-0.02-0.004c-0.606-0.106-1.222-0.239-1.844-0.398
		c-0.116,0.31-0.214,0.612-0.301,0.905h2.103C151.504,130.514,151.518,130.487,151.533,130.46z"/>
	<path fill="#343434" d="M147.437,130.541h1.4c0.061-0.345,0.137-0.701,0.239-1.07c-0.569-0.164-1.11-0.351-1.624-0.557
		C147.402,129.487,147.397,130.033,147.437,130.541z"/>
	<path fill="#343434" d="M142.615,125.946c-0.227-0.198-0.439-0.395-0.639-0.588c-0.013,0.17-0.025,0.341-0.029,0.518
		c-0.026,1.516,0.928,3.368,1.822,4.358C143.298,129.26,142.758,127.791,142.615,125.946z"/>
	<path fill="#343434" d="M142.653,123.634c0.045-0.367,0.109-0.718,0.182-1.061c-0.032-0.01-0.064-0.023-0.095-0.035
		c-0.319,0.632-0.557,1.329-0.685,2.126c0.168,0.129,0.343,0.26,0.525,0.393C142.579,124.601,142.597,124.131,142.653,123.634z"/>
	<path fill="#343434" d="M151.533,116.205c0.006,0,0.013,0.002,0.02,0.002c0.57,0.105,1.145,0.239,1.72,0.404
		c0.266-0.327,0.511-0.65,0.734-0.971c-0.367-0.49-0.711-1.021-1.02-1.606c-0.425-0.078-0.854-0.145-1.284-0.2
		c-0.05-0.007-0.099-0.01-0.151-0.016c-0.007,0-0.014,0-0.02-0.002c-0.471-0.059-0.933-0.093-1.382-0.106
		c-0.045,0.09-0.088,0.181-0.134,0.268c-0.095,0.49-0.264,1.17-0.558,1.978C150.137,115.996,150.831,116.078,151.533,116.205z"/>
	<path fill="#343434" d="M143.432,126.617c0.113,1.675,0.467,3.051,0.742,3.924h1.017c-0.326-0.851-0.565-1.928-0.629-3.125
		C144.159,127.155,143.783,126.887,143.432,126.617z"/>
	<path fill="#343434" d="M148.463,116.932c-0.203-0.01-0.401-0.016-0.6-0.02c-0.784,0.833-1.605,1.563-2.379,2.288
		c0.485,0.03,0.986,0.079,1.503,0.151C147.523,118.466,148.044,117.672,148.463,116.932z"/>
	<path fill="#343434" d="M145.048,123.388c-0.499-0.187-0.972-0.362-1.418-0.526c-0.048,0.279-0.091,0.563-0.125,0.853
		c-0.082,0.662-0.111,1.297-0.108,1.905c0.362,0.24,0.748,0.478,1.157,0.713C144.592,125.387,144.74,124.392,145.048,123.388z"/>
	<path fill="#343434" d="M146.226,122.868c0.598,0.173,1.22,0.364,1.862,0.577c0.276-0.594,0.597-1.181,0.968-1.756
		c0.169-0.237,0.34-0.467,0.512-0.691c-0.751-0.238-1.487-0.442-2.198-0.608C146.965,121.18,146.566,122.007,146.226,122.868z"/>
	<path fill="#343434" d="M149.522,114.81c-0.253,0.397-0.523,0.767-0.802,1.117c0.086,0.002,0.174,0.004,0.262,0.007
		C149.195,115.525,149.375,115.148,149.522,114.81z"/>
	<path fill="#343434" d="M145.333,126.761c0.493,0.257,1.015,0.505,1.565,0.737c0.131-0.998,0.388-2.046,0.788-3.097
		c-0.613-0.24-1.205-0.469-1.772-0.686C145.562,124.78,145.388,125.802,145.333,126.761z"/>
	<path fill="#343434" d="M150.693,125.612c-0.745-0.307-1.474-0.602-2.18-0.882c-0.431,1.037-0.732,2.068-0.908,3.05
		c0.579,0.22,1.185,0.421,1.819,0.593C149.742,127.482,150.169,126.55,150.693,125.612z"/>
	<path fill="#343434" d="M146.489,120.205c-0.612-0.12-1.203-0.211-1.765-0.272c-0.16,0.16-0.315,0.322-0.468,0.488
		c-0.189,0.555-0.36,1.153-0.498,1.793c0.491,0.118,1.013,0.251,1.563,0.4C145.674,121.733,146.077,120.937,146.489,120.205z"/>
	<path fill="#343434" d="M151.553,121.698c-0.007-0.004-0.014-0.007-0.02-0.009c-0.346-0.134-0.692-0.262-1.034-0.381
		c-0.222,0.291-0.442,0.586-0.653,0.885c-0.33,0.51-0.621,1.029-0.881,1.551c0.758,0.264,1.534,0.554,2.327,0.873
		c0.078-0.122,0.158-0.244,0.241-0.367c0.006-0.01,0.014-0.02,0.02-0.03c0.181-0.268,0.362-0.535,0.559-0.8
		c0.311-0.371,0.614-0.733,0.912-1.089c-0.137-0.067-0.274-0.135-0.411-0.203C152.259,121.977,151.906,121.834,151.553,121.698z"/>
	<path fill="#343434" d="M152.862,123.983c-0.245,0.329-0.478,0.659-0.702,0.988c0.749,0.306,1.486,0.589,2.204,0.841
		c0.151-0.218,0.304-0.435,0.463-0.651c0.37-0.508,0.718-1.01,1.046-1.506c-0.66-0.285-1.329-0.592-1.998-0.912
		C153.545,123.157,153.206,123.571,152.862,123.983z"/>
	<path fill="#343434" d="M156.458,122.741c0.628-1.027,1.129-2.004,1.458-2.906c-0.504-0.241-1.014-0.486-1.531-0.727
		c-0.482,0.884-1.103,1.798-1.797,2.717C155.229,122.143,155.853,122.452,156.458,122.741z"/>
	<path fill="#343434" d="M154.261,116.926c0.503,0.203,0.989,0.415,1.46,0.632c-0.443-0.433-0.881-0.89-1.297-1.389
		c-0.136,0.22-0.284,0.444-0.438,0.668C154.078,116.866,154.169,116.893,154.261,116.926z"/>
	<path fill="#343434" d="M158.663,124.71c-0.632-0.202-1.28-0.438-1.941-0.703c-0.341,0.566-0.719,1.134-1.125,1.691
		c-0.104,0.141-0.206,0.282-0.308,0.423c0.84,0.268,1.649,0.484,2.412,0.644C158.065,126.063,158.386,125.372,158.663,124.71z"/>
	<path fill="#343434" d="M153.273,117.814c-0.536,0.7-1.125,1.415-1.72,2.152c-0.007,0.007-0.014,0.017-0.02,0.025
		c-0.102,0.126-0.201,0.251-0.303,0.379c0.101,0.033,0.201,0.066,0.303,0.102c0.006,0.003,0.013,0.005,0.02,0.009
		c0.505,0.177,1.011,0.372,1.518,0.59c0.238,0.118,0.473,0.236,0.706,0.351c0.752-0.915,1.427-1.778,1.973-2.608
		c-0.615-0.279-1.236-0.552-1.865-0.802C153.681,117.943,153.478,117.876,153.273,117.814z"/>
	<path fill="#343434" d="M157.231,127.644c0.013-0.023,0.023-0.044,0.034-0.064c-0.838-0.115-1.722-0.304-2.627-0.552
		c-0.546,0.764-1.059,1.497-1.534,2.187c1.049,0.181,2.036,0.289,2.929,0.308C156.455,128.949,156.86,128.324,157.231,127.644z"/>
	<path fill="#343434" d="M153.722,126.755c-0.717-0.227-1.444-0.492-2.169-0.789c-0.007-0.002-0.014-0.006-0.02-0.009
		c-0.003-0.001-0.005-0.002-0.008-0.003c-0.549,0.891-1.012,1.769-1.39,2.608c0.472,0.123,0.939,0.238,1.398,0.341
		c0.006,0.001,0.014,0.003,0.02,0.004c0.253,0.056,0.501,0.107,0.749,0.157C152.722,128.329,153.197,127.552,153.722,126.755z"/>
	<path fill="#343434" d="M157.237,123.106c0.604,0.277,1.188,0.53,1.756,0.755c0.318-0.878,0.538-1.701,0.612-2.421
		c0.001-0.01,0.002-0.018,0.004-0.03c-0.344-0.457-0.731-0.881-1.145-1.296C158.217,121.054,157.794,122.069,157.237,123.106z"/>
	<path fill="#343434" d="M160.6,128.113c-0.114,0.122-0.83,1.397-2.909,1.902c-0.346,0.094-0.719,0.166-1.11,0.219
		c-0.087,0.104-0.175,0.208-0.264,0.307h2.697c0.066-0.07,0.138-0.161,0.207-0.242v0.493h-15.586v1.911h15.586v8.372
		c0.244-0.662,0.581-1.073,0.954-1.073c0.489,0,0.917,0.711,1.155,1.771c0.391-1.059,1.096-1.771,1.904-1.771
		c0.853,0,1.593,0.791,1.967,1.95c0.376-1.159,1.116-1.95,1.968-1.95c0.805,0,1.509,0.706,1.901,1.758
		c0.228-1.052,0.64-1.758,1.111-1.758c0.323,0,0.618,0.333,0.845,0.878v-10.897H159.48
		C159.876,129.466,160.286,128.814,160.6,128.113z"/>
	<path fill="#343434" d="M160.824,127.554c-0.162,0.03-0.329,0.057-0.506,0.076c-0.625,0.087-1.315,0.101-2.049,0.051
		c-0.073,0.138-0.141,0.278-0.216,0.415c-0.279,0.501-0.578,0.962-0.889,1.391c0.139-0.012,0.284-0.016,0.416-0.035
		c1.983-0.193,2.894-1.265,3.023-1.343C160.684,127.926,160.759,127.741,160.824,127.554z"/>
	<path fill="#343434" d="M155.395,130.336c-0.914,0.034-1.909-0.023-2.948-0.161c-0.084,0.125-0.166,0.247-0.248,0.366h3.02
		C155.279,130.475,155.337,130.406,155.395,130.336z"/>
	<path fill="#343434" d="M158.645,126.933c0.579,0.086,1.129,0.13,1.638,0.124c0.247,0.003,0.479-0.006,0.701-0.023
		c0.101-0.392,0.161-0.783,0.154-1.157c-0.003-0.206-0.016-0.401-0.033-0.595c-0.531-0.073-1.083-0.188-1.654-0.341
		C159.233,125.591,158.963,126.259,158.645,126.933z"/>
	<path fill="#343434" d="M159.698,124.126c0.449,0.159,0.885,0.296,1.31,0.405c-0.172-0.944-0.507-1.746-0.949-2.463
		C160.02,122.705,159.894,123.399,159.698,124.126z"/>
	<path fill="#343434" d="M151.553,118.604c0.311-0.353,0.615-0.697,0.906-1.03c-0.303-0.081-0.604-0.156-0.906-0.222
		c-0.007-0.002-0.014-0.004-0.02-0.005c-0.833-0.182-1.654-0.303-2.454-0.371c-0.323,0.773-0.767,1.616-1.239,2.514
		c0.798,0.144,1.622,0.337,2.46,0.584c0.416-0.508,0.83-0.986,1.233-1.446C151.539,118.62,151.547,118.613,151.553,118.604z"/>
	<path fill="#343434" d="M176.61,103.862h0.612h5.519h0.561h5.515h0.615h3.301c0.047-0.373,0.075-0.764,0.075-1.169
		c0-2.437-0.91-4.415-2.032-4.415c-0.734,0-1.374,0.846-1.732,2.111c-0.61-1.265-1.705-2.111-2.958-2.111
		c-1.328,0-2.48,0.948-3.066,2.341c-0.583-1.393-1.735-2.341-3.063-2.341c-1.258,0-2.356,0.854-2.966,2.126
		c-0.37-1.272-1.036-2.126-1.799-2.126c-1.162,0-2.105,1.978-2.105,4.415c0,0.406,0.028,0.796,0.077,1.169H176.61z M190.749,99.357
		c0.782,0,1.416,1.377,1.416,3.077c0,0.283-0.018,0.555-0.051,0.815h-2.587h-0.143c-0.033-0.26-0.05-0.532-0.05-0.815
		c0-0.351,0.028-0.688,0.078-1.004C189.603,100.224,190.128,99.357,190.749,99.357z M186.041,99.357c1.337,0,2.42,1.377,2.42,3.077
		c0,0.283-0.033,0.555-0.088,0.815h-4.663c-0.057-0.26-0.089-0.532-0.089-0.815C183.621,100.734,184.704,99.357,186.041,99.357z
		 M179.912,99.357c1.337,0,2.42,1.377,2.42,3.077c0,0.283-0.033,0.555-0.089,0.815h-4.663c-0.057-0.26-0.088-0.532-0.088-0.815
		C177.492,100.734,178.575,99.357,179.912,99.357z M175.166,99.357c0.682,0,1.254,0.975,1.419,2.295
		c-0.064,0.336-0.101,0.682-0.101,1.04c0,0.189,0.012,0.374,0.031,0.556h-2.762c-0.034-0.26-0.054-0.532-0.054-0.815
		C173.698,100.734,174.355,99.357,175.166,99.357z"/>
	<path fill="#343434" d="M181.573,102.489c0.002-0.018,0.002-0.037,0.002-0.056c0-1.258-0.761-2.319-1.662-2.319
		s-1.661,1.062-1.661,2.319c0,0.019,0,0.038,0.001,0.056H181.573z"/>
	<path fill="#343434" d="M187.701,102.489c0.002-0.018,0.002-0.037,0.002-0.056c0-1.258-0.761-2.319-1.662-2.319
		s-1.662,1.062-1.662,2.319c0,0.019,0,0.038,0,0.056H187.701z"/>
	<path fill="#343434" d="M191.46,102.489c0.001-0.018,0.001-0.037,0.001-0.056c0-1.258-0.294-2.319-0.643-2.319
		s-0.643,1.062-0.643,2.319c0,0.019,0,0.038,0.001,0.056H191.46z"/>
	<path fill="#343434" d="M175.918,102.489c0-0.018,0-0.037,0-0.056c0-1.258-0.294-2.319-0.642-2.319
		c-0.349,0-0.643,1.062-0.643,2.319c0,0.019,0,0.038,0,0.056H175.918z"/>
	<path fill="#343434" d="M177.141,98.836c0.765-0.833,1.765-1.316,2.816-1.316c1.182,0,2.279,0.591,3.063,1.601
		c0.786-1.011,1.884-1.601,3.066-1.601c1.056,0,2.039,0.465,2.797,1.287c0.33-0.558,0.734-0.945,1.189-1.141l-4.88-15.148h-4.961
		l-4.834,15.012C176.07,97.608,176.677,98.071,177.141,98.836z"/>
	<path fill="#343434" d="M92.471,102.452c1.576,0.306,3.304-0.548,4.885-0.591c0.276,0.465,0.398,3.376,0.936,4.916
		c2.748-0.514,6.85-0.192,9.276-0.037l0.487,28.96h12.363c-0.101-6.26-0.244-16.709-0.122-19.382
		c0.205-4.512-0.914-11.258,3.045-11.983c3.961-0.724,5.025-0.52,5.025-0.52s2.068-3.338,2.448-4.001
		c0.381-0.667,0.602-1.247,0.602-1.247s3.901-0.151,4.367-0.738c0.463-0.589,0.322-2.13-1.933-1.551
		c-2.255,0.576-4.526,0.613-6.159,0.646c-4.392,0.09-8.319-1.113-8.319-1.113c-3.274-0.966-1.344-2.85-2.066-5.458
		c-0.702-2.525-4.529-3.818-6.036-1.096c-1.255,2.27,2.316,4.517,1.114,6.513c-0.538,0.897-2.266,0.905-3.141,1.193
		c-1.268,0.421-5.058,2.343-11.897,2.394c0.071,0.294-0.024,0.62,0.047,0.915c-1.354-0.106-4.729-0.624-5.883,0.399
		C90.586,101.489,91.035,102.172,92.471,102.452z"/>
	<path fill="#343434" d="M106.419,137.327l-1.091,14.924c2.687-0.612,5.466-0.934,8.314-0.934c3.466,0,6.83,0.481,10.051,1.378
		l-1.125-15.369h-16.149V137.327z"/>
	<path fill="#343434" d="M481.015,119.91l9.555-0.059c0.795-0.006,1.312-0.579,1.165-1.279c-2.167-10.351-3.604-21.361-4.215-32.815
		c-0.04-0.713-0.71-1.287-1.503-1.283l-0.9,0.005c-0.795,0.006-1.457,0.588-1.487,1.301c-0.464,11.466-1.76,22.491-3.795,32.866
		C479.699,119.35,480.224,119.917,481.015,119.91z"/>
	<path fill="#343434" d="M486.028,156.747c5.338-0.033,10.089,2.534,13.072,6.524h8.608c-3.035-5.46-5.798-11.44-8.24-17.871
		c-0.254-0.674-1.099-1.218-1.89-1.213l-23.257,0.149c-0.794,0.004-1.629,0.559-1.877,1.236c-2.322,6.355-4.961,12.275-7.869,17.699
		h8.59C476.105,159.338,480.765,156.78,486.028,156.747z"/>
	<path fill="#343434" d="M475.272,141.507l21.315-0.137c0.79-0.005,1.239-0.559,1.009-1.241c-1.68-4.918-3.185-10.056-4.489-15.406
		c-0.167-0.699-0.945-1.259-1.737-1.252l-11.109,0.069c-0.792,0.007-1.557,0.577-1.721,1.275c-1.235,5.367-2.677,10.525-4.29,15.462
		C474.027,140.966,474.481,141.511,475.272,141.507z"/>
	<path fill="#343434" d="M483.684,83.807l3.758-0.023c0.792-0.006,1.432-0.549,1.428-1.213c-0.004-0.664-0.652-1.201-1.443-1.195
		l-3.759,0.023c-0.793,0.005-1.431,0.549-1.427,1.215C482.244,83.277,482.889,83.811,483.684,83.807z"/>
	<path fill="#343434" d="M483.845,80.914l3.394-0.02c0.793-0.005,1.379-0.596,1.085-1.257c-0.345-0.779-0.899-1.393-1.567-1.737
		c0.04-0.137,0.059-0.283,0.043-0.437l-1.229-11.945c-0.074-0.712-0.186-0.71-0.25,0.003L484.24,77.48
		c-0.014,0.154,0.007,0.3,0.049,0.436c-0.663,0.352-1.207,0.973-1.541,1.754C482.461,80.338,483.054,80.922,483.845,80.914z"/>
	<path fill="#343434" d="M419.196,114.877c0.494-0.634,1.106-1.002,1.785-1.002c0.807,0,1.537,0.518,2.079,1.434
		c0.813-0.914,1.883-1.434,3.036-1.434c1.273,0,2.455,0.643,3.29,1.739c0.835-1.096,2.018-1.739,3.291-1.739
		c1.145,0,2.207,0.512,3.018,1.415c0.526-0.905,1.233-1.415,2.017-1.415c0.622,0,1.187,0.323,1.654,0.888L438.697,107h-18.824
		L419.196,114.877z"/>
	<path fill="#343434" d="M427.886,119.156c0.001-0.037,0.002-0.072,0.002-0.107c0-1.361-0.843-2.511-1.84-2.511
		c-0.998,0-1.841,1.15-1.841,2.511c0,0.035,0.001,0.07,0.002,0.107H427.886z"/>
	<path fill="#343434" d="M422.107,119.049c0-1.361-0.515-2.511-1.123-2.511c-0.609,0-1.124,1.15-1.124,2.511
		c0,0.035,0,0.07,0.001,0.107h2.246C422.107,119.119,422.107,119.084,422.107,119.049z"/>
	<path fill="#343434" d="M438.923,119.156c0-0.037,0.001-0.072,0.001-0.107c0-1.361-0.515-2.511-1.124-2.511
		c-0.609,0-1.124,1.15-1.124,2.511c0,0.035,0,0.07,0.001,0.107H438.923z"/>
	<path fill="#343434" d="M434.467,119.156c0.002-0.037,0.002-0.072,0.002-0.107c0-1.362-0.843-2.511-1.84-2.511
		s-1.841,1.149-1.841,2.511c0,0.035,0.001,0.07,0.003,0.107H434.467z"/>
	<path fill="#343434" d="M423.493,123.79h4.203c0.001-0.036,0.002-0.072,0.002-0.107c0-1.36-0.963-2.51-2.103-2.51
		c-1.141,0-2.104,1.151-2.104,2.51C423.49,123.718,423.491,123.754,423.493,123.79z"/>
	<path fill="#343434" d="M439.026,121.172c-0.696,0-1.286,1.151-1.286,2.51c0,0.035,0,0.071,0.002,0.107h2.566
		c0.001-0.036,0.001-0.072,0.001-0.107C440.31,122.323,439.721,121.172,439.026,121.172z"/>
	<path fill="#343434" d="M433.115,121.172c-1.14,0-2.103,1.148-2.103,2.51c0,0.035,0,0.071,0.002,0.107h4.202
		c0.001-0.036,0.003-0.072,0.003-0.107C435.219,122.321,434.255,121.172,433.115,121.172z"/>
	<path fill="#343434" d="M397.724,110.273c-0.166,0.855-0.383,1.636-0.653,2.335c0.294,0.009,0.59,0.029,0.889,0.057
		c0.006,0.001,0.013,0.001,0.02,0.002c0.09,0.007,0.178,0.013,0.267,0.024c0.204,0.028,0.402,0.058,0.6,0.091
		c-0.284-0.738-0.506-1.565-0.665-2.478c0.816-0.058,1.463-0.732,1.463-1.563c0-0.705-0.466-1.294-1.105-1.494L398.343,96.1
		l-0.708,11.136c-0.654,0.19-1.136,0.788-1.136,1.504C396.498,109.49,397.023,110.114,397.724,110.273z"/>
	<path fill="#343434" d="M411.438,111.242c0.444,0,0.803-0.36,0.803-0.802c0-0.36-0.24-0.652-0.564-0.755l-0.101-5.695l-0.361,5.692
		c-0.332,0.098-0.579,0.393-0.579,0.758C410.637,110.882,410.995,111.242,411.438,111.242z"/>
	<path fill="#343434" d="M448.259,129.338h1.655c-0.142-1.705-0.345-4.743-0.345-8.212c0-3.395,0.193-6.361,0.335-8.085
		c0.068,0.009,0.134,0.021,0.204,0.021c0.868,0,1.574-0.705,1.574-1.574c0-0.704-0.467-1.294-1.106-1.494l-0.197-11.146
		l-0.708,11.136c-0.655,0.191-1.136,0.789-1.136,1.503c0,0.785,0.576,1.431,1.328,1.55c-0.312,1.665-0.888,2.95-1.603,3.99
		c-0.094,0.138-0.192,0.273-0.29,0.403c-0.217,1.381-0.487,3.51-0.554,5.897c-0.119,2.455,0.09,4.636,0.273,6.012h0.57V129.338z"/>
	<path fill="#343434" d="M444.078,129.338h0.604c-0.726-1.24-1.523-3.156-1.422-5.63c0.024-0.518,0.086-1.01,0.172-1.478
		c-0.063,0.09-0.123,0.183-0.181,0.278c-0.516,0.842-0.85,1.826-0.873,3.1c-0.015,0.879,0.382,1.897,0.873,2.693
		C443.516,128.731,443.808,129.095,444.078,129.338z"/>
	<path fill="#343434" d="M446.204,129.338h0.235h0.882c-0.452-1.352-0.979-3.501-0.866-6.044c0.062-2.015,0.457-3.77,0.861-5.08
		c-0.286,0.318-0.58,0.615-0.877,0.901c-0.078,0.075-0.157,0.151-0.235,0.226c-0.546,0.514-1.089,0.996-1.588,1.496
		c-0.205,0.879-0.358,1.861-0.396,2.911c-0.128,2.305,0.425,4.293,0.909,5.59H446.204z"/>
	<path fill="#343434" d="M450.53,121.126c0,3.469-0.203,6.507-0.345,8.212h1.609h0.6c0.187-1.377,0.412-3.653,0.277-6.223
		c-0.072-2.17-0.305-4.13-0.513-5.517c-0.124-0.158-0.245-0.321-0.363-0.491c-0.727-1.05-1.312-2.335-1.596-4.037
		C450.34,114.802,450.53,117.762,450.53,121.126z"/>
	<path fill="#343434" d="M455.249,129.338h0.774c0.259-0.274,0.554-0.66,0.826-1.103c0.483-0.788,0.887-1.763,0.873-2.627
		c-0.023-1.257-0.358-2.229-0.873-3.06c-0.037-0.06-0.076-0.121-0.116-0.179c0.048,0.343,0.089,0.691,0.106,1.06
		C456.95,126.097,456.013,128.12,455.249,129.338z"/>
	<path fill="#343434" d="M452.728,129.338h0.922h0.247h0.966c0.504-1.279,1.155-3.389,1.017-5.871
		c-0.031-0.88-0.146-1.708-0.302-2.471c-0.526-0.526-1.103-1.027-1.681-1.561c-0.082-0.078-0.164-0.153-0.247-0.231
		c-0.256-0.241-0.509-0.492-0.757-0.756c0.354,1.255,0.674,2.841,0.737,4.63c0.014,0.275,0.019,0.545,0.019,0.81v0.009
		C453.645,126.203,453.144,128.126,452.728,129.338z"/>
	<path fill="#343434" d="M429.178,76.494h0.006h2.609c0.314-0.331,0.753-1.039,0.743-1.632c-0.047-2.586-3.093-2.423-3.352-6.022
		v-0.054c-0.001,0.009-0.003,0.016-0.003,0.024c-0.001-0.009-0.002-0.016-0.003-0.024v0.045c-0.337,3.578-3.307,3.443-3.353,6.031
		c-0.01,0.593,0.406,1.33,0.744,1.632L429.178,76.494L429.178,76.494z"/>
	<rect x="426.816" y="77.278" fill="#343434" width="4.755" height="4.592"/>
	<path fill="#343434" d="M456.734,131.113v-1.036c0-0.21-0.172-0.381-0.381-0.381h-12.556c-0.211,0-0.382,0.171-0.382,0.381v1.036
		c0,0.213,0.171,0.383,0.382,0.383h12.556C456.562,131.496,456.734,131.326,456.734,131.113z"/>
	<rect x="418.344" y="104.516" fill="#343434" width="21.467" height="1.91"/>
	<path fill="#343434" d="M409.632,140.9c-0.858,0-1.554,1.146-1.554,2.562c0,0.237,0.021,0.462,0.058,0.678h2.994
		c0.035-0.216,0.057-0.441,0.057-0.678C411.187,142.046,410.49,140.9,409.632,140.9z"/>
	<path fill="#343434" d="M413.568,140.9c-0.858,0-1.554,1.146-1.554,2.562c0,0.237,0.021,0.462,0.057,0.678h2.995
		c0.036-0.216,0.056-0.441,0.056-0.678C415.121,142.046,414.426,140.9,413.568,140.9z"/>
	<path fill="#343434" d="M407.527,143.461c0-0.225-0.012-0.442-0.031-0.65c-0.106-1.1-0.473-1.912-0.911-1.912
		c-0.503,0-0.91,1.073-0.937,2.422c-0.001,0.047-0.005,0.091-0.005,0.14c0,0.036,0.005,0.067,0.005,0.103v0.606h1.806
		c-0.001-0.01-0.002-0.02-0.004-0.031h0.043C407.515,143.923,407.527,143.698,407.527,143.461z"/>
	<path fill="#343434" d="M417.453,144.17v-0.031h0.014c0.021-0.216,0.034-0.441,0.034-0.678c0-0.276-0.02-0.535-0.048-0.782
		c-0.118-1.03-0.456-1.779-0.862-1.779c-0.398,0-0.736,0.722-0.859,1.726c-0.033,0.262-0.05,0.543-0.05,0.836
		c0,0.237,0.011,0.462,0.032,0.678h0.091c-0.001,0.011-0.002,0.021-0.003,0.031L417.453,144.17L417.453,144.17z"/>
	<path fill="#343434" d="M402.929,146.533v-13.32h-10.956v13.32L402.929,146.533L402.929,146.533z M397.813,136.815
		c0-0.682,0.518-1.233,1.156-1.233c0.639,0,1.156,0.552,1.156,1.233v7.099h-2.312V136.815z M394.52,136.815
		c0-0.682,0.517-1.233,1.156-1.233s1.156,0.552,1.156,1.233v7.099h-2.312V136.815z"/>
	<path fill="#343434" d="M447.32,140.156c1.099,0,2.118,0.54,2.856,1.462c0.739-0.923,1.758-1.462,2.858-1.462
		c0.9,0,1.742,0.356,2.424,0.995v-9.332h-10.701v9.477C445.462,140.571,446.356,140.156,447.32,140.156z"/>
	<path fill="#343434" d="M391.748,127.883c0.036,0.991,0.188,1.89,0.385,2.658h1.206c-0.095-0.586-0.133-1.224-0.109-1.902
		C392.705,128.403,392.211,128.149,391.748,127.883z"/>
	<path fill="#343434" d="M397.96,130.46c0.006-0.014,0.014-0.027,0.02-0.04c0.062-0.115,0.125-0.232,0.188-0.351
		c-0.061-0.011-0.124-0.019-0.188-0.03c-0.006-0.002-0.014-0.002-0.02-0.004c-0.606-0.106-1.222-0.239-1.844-0.398
		c-0.116,0.31-0.214,0.612-0.301,0.905h2.103C397.931,130.514,397.945,130.487,397.96,130.46z"/>
	<path fill="#343434" d="M395.263,130.541c0.061-0.345,0.138-0.701,0.239-1.07c-0.569-0.164-1.109-0.351-1.624-0.557
		c-0.049,0.572-0.054,1.119-0.015,1.627L395.263,130.541L395.263,130.541z"/>
	<path fill="#343434" d="M388.374,125.877c-0.026,1.516,0.928,3.368,1.822,4.358c-0.472-0.974-1.011-2.444-1.154-4.288
		c-0.227-0.198-0.439-0.395-0.639-0.588C388.391,125.529,388.378,125.7,388.374,125.877z"/>
	<path fill="#343434" d="M389.262,122.574c-0.032-0.01-0.064-0.023-0.095-0.035c-0.319,0.632-0.557,1.329-0.685,2.126
		c0.168,0.129,0.343,0.26,0.525,0.393c-0.001-0.456,0.017-0.926,0.073-1.423C389.125,123.268,389.189,122.917,389.262,122.574z"/>
	<path fill="#343434" d="M397.96,116.205c0.006,0,0.013,0.002,0.02,0.002c0.57,0.105,1.145,0.239,1.72,0.404
		c0.266-0.327,0.511-0.65,0.734-0.971c-0.367-0.49-0.711-1.021-1.02-1.606c-0.425-0.078-0.854-0.145-1.284-0.2
		c-0.05-0.007-0.099-0.01-0.151-0.016c-0.007,0-0.014,0-0.02-0.002c-0.471-0.059-0.933-0.093-1.382-0.106
		c-0.045,0.09-0.088,0.181-0.135,0.268c-0.095,0.49-0.264,1.17-0.558,1.978C396.564,115.996,397.258,116.078,397.96,116.205z"/>
	<path fill="#343434" d="M389.859,126.617c0.113,1.675,0.467,3.051,0.742,3.924h1.017c-0.326-0.851-0.565-1.928-0.629-3.125
		C390.586,127.155,390.21,126.887,389.859,126.617z"/>
	<path fill="#343434" d="M393.414,119.351c0.535-0.885,1.057-1.679,1.476-2.419c-0.203-0.01-0.401-0.016-0.6-0.02
		c-0.784,0.833-1.605,1.563-2.379,2.288C392.396,119.23,392.897,119.279,393.414,119.351z"/>
	<path fill="#343434" d="M389.933,123.714c-0.082,0.662-0.111,1.297-0.108,1.905c0.362,0.24,0.748,0.478,1.157,0.713
		c0.037-0.946,0.186-1.941,0.493-2.945c-0.499-0.187-0.972-0.362-1.418-0.526C390.009,123.14,389.967,123.425,389.933,123.714z"/>
	<path fill="#343434" d="M392.653,122.868c0.598,0.173,1.22,0.364,1.862,0.577c0.276-0.594,0.597-1.181,0.968-1.756
		c0.169-0.237,0.34-0.467,0.512-0.691c-0.751-0.238-1.487-0.442-2.198-0.608C393.392,121.18,392.993,122.007,392.653,122.868z"/>
	<path fill="#343434" d="M395.948,114.81c-0.253,0.397-0.523,0.767-0.802,1.117c0.086,0.002,0.174,0.004,0.262,0.007
		C395.622,115.525,395.802,115.148,395.948,114.81z"/>
	<path fill="#343434" d="M392.341,123.715c-0.351,1.065-0.525,2.087-0.581,3.045c0.493,0.257,1.015,0.505,1.565,0.737
		c0.131-0.998,0.388-2.046,0.788-3.097C393.499,124.161,392.908,123.932,392.341,123.715z"/>
	<path fill="#343434" d="M397.12,125.612c-0.745-0.307-1.474-0.602-2.18-0.882c-0.431,1.037-0.732,2.068-0.908,3.05
		c0.579,0.22,1.185,0.421,1.819,0.593C396.169,127.482,396.596,126.55,397.12,125.612z"/>
	<path fill="#343434" d="M390.683,120.421c-0.189,0.555-0.36,1.153-0.498,1.793c0.491,0.118,1.013,0.251,1.563,0.4
		c0.352-0.88,0.755-1.677,1.167-2.409c-0.612-0.12-1.202-0.211-1.765-0.272C390.991,120.093,390.836,120.255,390.683,120.421z"/>
	<path fill="#343434" d="M397.98,121.698c-0.007-0.004-0.014-0.007-0.02-0.009c-0.346-0.134-0.692-0.262-1.034-0.381
		c-0.222,0.291-0.442,0.586-0.653,0.885c-0.33,0.51-0.621,1.029-0.881,1.551c0.758,0.264,1.534,0.554,2.327,0.873
		c0.078-0.122,0.158-0.244,0.241-0.367c0.006-0.01,0.014-0.02,0.02-0.03c0.181-0.268,0.362-0.535,0.559-0.8
		c0.311-0.371,0.614-0.733,0.912-1.089c-0.137-0.067-0.274-0.135-0.411-0.203C398.686,121.977,398.333,121.834,397.98,121.698z"/>
	<path fill="#343434" d="M399.289,123.983c-0.245,0.329-0.478,0.659-0.702,0.988c0.749,0.306,1.486,0.589,2.204,0.841
		c0.151-0.218,0.304-0.435,0.463-0.651c0.37-0.508,0.718-1.01,1.046-1.506c-0.66-0.285-1.329-0.592-1.998-0.912
		C399.972,123.157,399.633,123.571,399.289,123.983z"/>
	<path fill="#343434" d="M402.885,122.741c0.629-1.027,1.129-2.004,1.459-2.906c-0.504-0.241-1.014-0.486-1.531-0.727
		c-0.482,0.884-1.103,1.798-1.797,2.717C401.656,122.143,402.28,122.452,402.885,122.741z"/>
	<path fill="#343434" d="M400.688,116.926c0.503,0.203,0.988,0.415,1.46,0.632c-0.443-0.433-0.881-0.89-1.297-1.389
		c-0.136,0.22-0.284,0.444-0.438,0.668C400.505,116.866,400.596,116.893,400.688,116.926z"/>
	<path fill="#343434" d="M405.09,124.71c-0.632-0.202-1.28-0.438-1.941-0.703c-0.341,0.566-0.719,1.134-1.125,1.691
		c-0.104,0.141-0.206,0.282-0.308,0.423c0.84,0.268,1.649,0.484,2.412,0.644C404.492,126.063,404.813,125.372,405.09,124.71z"/>
	<path fill="#343434" d="M399.7,117.814c-0.536,0.7-1.125,1.415-1.72,2.152c-0.007,0.007-0.014,0.017-0.02,0.025
		c-0.102,0.126-0.201,0.251-0.303,0.379c0.101,0.033,0.201,0.066,0.303,0.102c0.006,0.003,0.013,0.005,0.02,0.009
		c0.505,0.177,1.011,0.372,1.518,0.59c0.238,0.118,0.473,0.236,0.706,0.351c0.752-0.915,1.427-1.778,1.973-2.608
		c-0.615-0.279-1.237-0.552-1.865-0.802C400.108,117.943,399.905,117.876,399.7,117.814z"/>
	<path fill="#343434" d="M403.658,127.644c0.013-0.023,0.023-0.044,0.034-0.064c-0.838-0.115-1.722-0.304-2.627-0.552
		c-0.546,0.764-1.059,1.497-1.534,2.187c1.049,0.181,2.036,0.289,2.929,0.308C402.882,128.949,403.287,128.324,403.658,127.644z"/>
	<path fill="#343434" d="M400.149,126.755c-0.717-0.227-1.444-0.492-2.169-0.789c-0.007-0.002-0.014-0.006-0.02-0.009
		c-0.003-0.001-0.005-0.002-0.008-0.003c-0.549,0.891-1.012,1.769-1.39,2.608c0.472,0.123,0.939,0.238,1.398,0.341
		c0.006,0.001,0.014,0.003,0.02,0.004c0.253,0.056,0.501,0.107,0.749,0.157C399.149,128.329,399.624,127.552,400.149,126.755z"/>
	<path fill="#343434" d="M403.664,123.106c0.604,0.277,1.188,0.53,1.756,0.755c0.318-0.878,0.538-1.701,0.612-2.421
		c0.001-0.01,0.003-0.018,0.004-0.03c-0.344-0.457-0.731-0.881-1.145-1.296C404.643,121.054,404.221,122.069,403.664,123.106z"/>
	<path fill="#343434" d="M407.027,128.113c-0.114,0.122-0.83,1.397-2.909,1.902c-0.346,0.094-0.719,0.166-1.11,0.219
		c-0.087,0.104-0.175,0.208-0.264,0.307h2.697c0.066-0.07,0.138-0.161,0.207-0.242v0.493h-15.586v1.911h15.586v8.372
		c0.244-0.662,0.581-1.073,0.954-1.073c0.489,0,0.917,0.711,1.154,1.771c0.391-1.059,1.096-1.771,1.904-1.771
		c0.853,0,1.593,0.791,1.967,1.95c0.376-1.159,1.116-1.95,1.968-1.95c0.805,0,1.509,0.706,1.901,1.758
		c0.228-1.052,0.64-1.758,1.111-1.758c0.323,0,0.618,0.333,0.845,0.878v-10.897h-11.546
		C406.303,129.466,406.713,128.814,407.027,128.113z"/>
	<path fill="#343434" d="M407.251,127.554c-0.162,0.03-0.329,0.057-0.506,0.076c-0.625,0.087-1.315,0.101-2.049,0.051
		c-0.073,0.138-0.141,0.278-0.216,0.415c-0.279,0.501-0.578,0.962-0.889,1.391c0.139-0.012,0.284-0.016,0.416-0.035
		c1.983-0.193,2.894-1.265,3.022-1.343C407.111,127.926,407.186,127.741,407.251,127.554z"/>
	<path fill="#343434" d="M401.822,130.336c-0.914,0.034-1.909-0.023-2.948-0.161c-0.084,0.125-0.166,0.247-0.248,0.366h3.02
		C401.706,130.475,401.764,130.406,401.822,130.336z"/>
	<path fill="#343434" d="M405.071,126.933c0.579,0.086,1.129,0.13,1.638,0.124c0.247,0.003,0.479-0.006,0.701-0.023
		c0.101-0.392,0.161-0.783,0.154-1.157c-0.003-0.206-0.016-0.401-0.033-0.595c-0.531-0.073-1.084-0.188-1.654-0.341
		C405.66,125.591,405.39,126.259,405.071,126.933z"/>
	<path fill="#343434" d="M406.125,124.126c0.449,0.159,0.886,0.296,1.31,0.405c-0.172-0.944-0.507-1.746-0.949-2.463
		C406.447,122.705,406.321,123.399,406.125,124.126z"/>
	<path fill="#343434" d="M397.98,118.604c0.311-0.353,0.615-0.697,0.906-1.03c-0.303-0.081-0.604-0.156-0.906-0.222
		c-0.007-0.002-0.014-0.004-0.02-0.005c-0.833-0.182-1.654-0.303-2.454-0.371c-0.323,0.773-0.767,1.616-1.239,2.514
		c0.798,0.144,1.622,0.337,2.46,0.584c0.416-0.508,0.83-0.986,1.233-1.446C397.966,118.62,397.974,118.613,397.98,118.604z"/>
	<path fill="#343434" d="M423.037,103.862h0.612h5.518h0.561h5.515h0.615h3.301c0.047-0.373,0.075-0.764,0.075-1.169
		c0-2.437-0.91-4.415-2.032-4.415c-0.734,0-1.374,0.846-1.732,2.111c-0.61-1.265-1.705-2.111-2.958-2.111
		c-1.328,0-2.48,0.948-3.066,2.341c-0.583-1.393-1.735-2.341-3.063-2.341c-1.258,0-2.356,0.854-2.966,2.126
		c-0.37-1.272-1.036-2.126-1.799-2.126c-1.162,0-2.105,1.978-2.105,4.415c0,0.406,0.028,0.796,0.077,1.169H423.037z M437.176,99.357
		c0.782,0,1.416,1.377,1.416,3.077c0,0.283-0.018,0.555-0.051,0.815h-2.587h-0.143c-0.033-0.26-0.05-0.532-0.05-0.815
		c0-0.351,0.028-0.688,0.078-1.004C436.03,100.224,436.555,99.357,437.176,99.357z M432.468,99.357c1.337,0,2.42,1.377,2.42,3.077
		c0,0.283-0.033,0.555-0.088,0.815h-4.663c-0.057-0.26-0.089-0.532-0.089-0.815C430.048,100.734,431.131,99.357,432.468,99.357z
		 M426.339,99.357c1.337,0,2.42,1.377,2.42,3.077c0,0.283-0.033,0.555-0.089,0.815h-4.663c-0.057-0.26-0.088-0.532-0.088-0.815
		C423.919,100.734,425.002,99.357,426.339,99.357z M421.593,99.357c0.682,0,1.254,0.975,1.419,2.295
		c-0.064,0.336-0.101,0.682-0.101,1.04c0,0.189,0.012,0.374,0.031,0.556h-2.762c-0.034-0.26-0.054-0.532-0.054-0.815
		C420.125,100.734,420.782,99.357,421.593,99.357z"/>
	<path fill="#343434" d="M427.999,102.489c0.002-0.018,0.002-0.037,0.002-0.056c0-1.258-0.761-2.319-1.662-2.319
		s-1.661,1.062-1.661,2.319c0,0.019,0,0.038,0.001,0.056H427.999z"/>
	<path fill="#343434" d="M434.128,102.489c0.002-0.018,0.002-0.037,0.002-0.056c0-1.258-0.762-2.319-1.662-2.319
		c-0.901,0-1.662,1.062-1.662,2.319c0,0.019,0,0.038,0,0.056H434.128z"/>
	<path fill="#343434" d="M437.887,102.489c0.001-0.018,0.001-0.037,0.001-0.056c0-1.258-0.294-2.319-0.643-2.319
		s-0.643,1.062-0.643,2.319c0,0.019,0,0.038,0.001,0.056H437.887z"/>
	<path fill="#343434" d="M422.345,102.489c0-0.018,0-0.037,0-0.056c0-1.258-0.294-2.319-0.643-2.319s-0.643,1.062-0.643,2.319
		c0,0.019,0,0.038,0,0.056H422.345z"/>
	<path fill="#343434" d="M423.568,98.836c0.765-0.833,1.765-1.316,2.815-1.316c1.182,0,2.279,0.591,3.063,1.601
		c0.786-1.011,1.883-1.601,3.066-1.601c1.056,0,2.039,0.465,2.797,1.287c0.33-0.558,0.734-0.945,1.189-1.141l-4.88-15.148h-4.961
		l-4.834,15.012C422.497,97.608,423.104,98.071,423.568,98.836z"/>
	<path fill="#343434" d="M601.986,108.883c-3.706-0.286-7.594-0.73-11.482-1.397c0.805,0.474,5.362,3.081,11.482,4.998V108.883z"/>
	<path fill="#343434" d="M602.779,108.182v6.111h5.393h24.371h5.393v-6.111c3.996-0.205,8.366-0.616,12.73-1.372
		c0.046-0.008,0-1.531,0-1.531c-0.326,0.223-2.084,0.647-3.162,0.72c-4.577,0.313-11.308-1.064-12.374-5.695h-2.586H621.12h-0.143
		h-1.238h-0.143h-11.423h-2.586c-1.066,4.631-7.797,6.008-12.374,5.695c-1.079-0.072-2.837-0.497-3.163-0.72
		c0,0-0.046,1.523,0,1.531C594.414,107.566,598.783,107.977,602.779,108.182z M608.172,110.721h-3.838v-1.807h3.838h5.421v1.807
		H608.172z M614.923,110.721v-1.807h0.282v1.807H614.923z M616.536,110.721v-1.807h7.644v1.807H616.536z M625.51,110.721v-1.807
		h0.282v1.807H625.51z M636.381,110.721h-3.838h-5.421v-1.807h5.421h3.838V110.721z"/>
	<path fill="#343434" d="M675.57,152.985c-5.431,0.934-10.865,1.555-16.046,1.953v5.033
		C668.079,157.29,674.447,153.649,675.57,152.985z"/>
	<path fill="#343434" d="M660.296,127.462c-4.851,0.832-9.703,1.386-14.33,1.743v4.494
		C653.606,131.306,659.292,128.053,660.296,127.462z"/>
	<path fill="#343434" d="M650.211,107.486c-3.888,0.668-7.776,1.111-11.482,1.397v3.601
		C644.849,110.567,649.406,107.96,650.211,107.486z"/>
	<polygon fill="#343434" points="535.88,82.353 530.177,75.269 528.543,47.831 526.46,75.578 520.683,82.259 	"/>
	<path fill="#343434" d="M528.037,122.166c5.923,0.035,10.752-4.735,10.788-10.656c0.038-5.92-4.734-10.751-10.657-10.787
		c-5.919-0.037-10.748,4.735-10.785,10.656C517.349,117.3,522.118,122.128,528.037,122.166z M528.149,104.369
		c3.906,0.022,7.056,3.21,7.031,7.118c-0.024,3.907-3.211,7.057-7.118,7.032c-3.907-0.023-7.057-3.213-7.033-7.119
		C521.052,107.495,524.238,104.343,528.149,104.369z"/>
	<path fill="#343434" d="M528.133,113.116c0.243,0.002,0.47-0.061,0.672-0.163l3.822,2.589l0.528-0.782l-3.678-2.49
		c0.092-0.192,0.149-0.405,0.151-0.634c0.002-0.733-0.526-1.342-1.224-1.467l0.029-4.622l-0.942-0.004l-0.029,4.77
		c-0.477,0.246-0.805,0.734-0.81,1.306C526.648,112.44,527.31,113.11,528.133,113.116z"/>
	<path fill="#343434" d="M337.673,85.709c1.995,0.387,4.182-0.694,6.185-0.749c0.35,0.589,0.503,4.274,1.185,6.223
		c3.479-0.651,8.672-0.244,11.744-0.047l0.616,36.664h15.651c-0.128-7.926-0.309-21.153-0.154-24.538
		c0.26-5.713-1.157-14.253,3.855-15.171c5.014-0.917,6.362-0.659,6.362-0.659s2.618-4.226,3.099-5.065
		c0.483-0.845,0.762-1.579,0.762-1.579s4.938-0.191,5.528-0.934c0.587-0.746,0.408-2.696-2.447-1.964
		c-2.855,0.729-5.73,0.776-7.797,0.817c-5.56,0.114-10.532-1.41-10.532-1.41c-4.145-1.223-1.702-3.608-2.615-6.91
		c-0.888-3.196-5.734-4.833-7.641-1.387c-1.589,2.874,2.932,5.719,1.411,8.246c-0.681,1.135-2.868,1.145-3.977,1.511
		c-1.606,0.532-6.403,2.966-15.061,3.031c0.09,0.372-0.03,0.785,0.06,1.158c-1.714-0.134-5.987-0.79-7.448,0.505
		C335.287,84.49,335.855,85.355,337.673,85.709z"/>
	<path fill="#343434" d="M355.331,129.862l-1.381,18.894c3.402-0.774,6.921-1.182,10.525-1.182c4.387,0,8.647,0.609,12.724,1.745
		l-1.424-19.457L355.331,129.862L355.331,129.862z"/>
	<path fill="#343434" d="M658.549,162.807v-8.776c5.925-0.456,12.145-1.168,18.356-2.244c0.088-0.017,0-2.928,0-2.928
		c-0.623,0.43-3.984,1.24-6.046,1.38c-8.748,0.594-21.619-2.037-23.657-10.889h-14.659h-11.972h-0.152h-0.121h-0.153h-11.972
		h-14.659c-1.672,7.263-10.637,10.336-18.633,10.878c-0.037-0.698-0.066-1.338-0.079-1.802c-0.051-1.845-1.44-9.709-1.44-9.709
		l1.737,0.498l2.205-3.768c0,0,0.601-0.223,1.07-0.391c0.46-0.177,0.753-0.912,1.507-1.537c0.747-0.629,0.947-1.314,0.947-1.314
		s0.566-0.447,0.856-1.09c0.293-0.637-0.481-1.298-0.481-1.298l0.676-1.538c2.336,1.261,7.029,3.59,12.872,5.42v-4.494
		c-4.086-0.315-8.35-0.797-12.632-1.475l0.274-0.625c4.667,0.639,9.26,1.028,13.551,1.249v8.703h12.228h24.371h12.228v-8.703
		c5.691-0.293,11.914-0.877,18.13-1.954c0.066-0.012,0-2.182,0-2.182c-0.462,0.319-2.966,0.924-4.502,1.027
		c-6.517,0.443-16.105-1.517-17.623-8.111h-8.233h-11.72h-0.203h-0.526h-0.203h-11.72h-8.233
		c-1.518,6.593-11.106,8.554-17.623,8.111c-1.536-0.103-4.04-0.708-4.502-1.027c0,0-0.011,0.372-0.02,0.806l-1.856-0.761
		l-2.328,3.221c0,0-0.178-0.283-0.404-0.615c-0.225-0.324-1.457-0.673-1.543-0.954c-0.085-0.275-1.027-3.706-1.798-6.166
		c-0.725-2.301-3.583-2.959-4.818-2.976c0.044-0.851,0.072-1.71,0.272-2.533c0.253-1.057,0.828-4.433,1.087-4.732
		c0.08-0.091,1.003-0.184,0.997-0.28l-0.379-1.328l0.152-0.679l4.909-0.207l-4.75-0.922l0.062-0.772l5.496-2.057l-5.831,0.869
		l-0.438-0.65l3.803-3.637l-4.883,3.115l-1.304-0.527l0.208-5.08l-1.297,5.146c0,0-1.458,0.055-1.823,0.187
		c-0.367,0.126-3.276-3.657-3.276-3.657l2.207,4.63c0,0-0.634,0.079-0.821,0.302c-0.14,0.165-2.619-0.023-3.906-0.133
		c0.012-0.096,0.024-0.192,0.04-0.295c0.161-1.008-0.238-3.873-0.698-5.82c-0.464-1.944-0.311-4.66,0.236-6.581
		c0.552-1.927-0.208-3.092-0.608-3.611c-0.403-0.513-0.625-1.022-0.288-1.434c0.331-0.407,0.065-1.011,0.388-1.049
		c0.325-0.039,1.484-0.659,1.484-0.659s0.27-1.469,0.286-2.248c0.019-0.785-2.404-0.853-2.404-0.853
		c0.005-0.664-0.106-0.837,0.487-1.137c0.562-0.283,1.189-0.711,1.26-1.393c0.104-1.117-1.091-1.102-1.325-1.991
		c-0.091-0.357,0.06-0.725,0.301-0.987c-0.86,1.195-2.516,0.947-3.442,1.921c-0.644,0.687-0.485,2.56,0.702,2.484
		c0,0-0.054,1.16-0.11,1.16c-1.215-0.082-2.396,0.274-2.396,0.274s-0.189,0.861-0.212,1.895c-0.022,1.03,1.298,1.101,1.293,1.392
		c-0.005,0.286,0.759,0.964,0.759,0.964s-0.053,0.66-0.39,0.858c-0.335,0.196,0.186,0.952,0.186,0.952s0.104,1.035-0.241,1.649
		c-0.346,0.608,0.664,1.667,0.881,3.032c0.219,1.367,0.148,2.642-0.236,4.908c-0.378,2.257,0.357,4.544,0.538,5.497
		c0.188,0.959,0.025,2.646,0.025,2.646s-0.902,1.631-2.247,4.448c-1.34,2.815,0.602,4.551,0.961,5.094
		c0.36,0.547-0.226,1.03-0.458,2.181c-0.233,1.15,1.604,1.933,1.604,1.933s0.322,0.379-0.149,1.199
		c-0.467,0.81,0.267,0.996,0.267,0.996s-0.414-0.01-0.858,1.423c-0.443,1.434,1.644,2.185,1.631,2.927
		c-0.019,0.74,0.958,3.076,0.958,3.076s-3.799,3.877-2.652,6.129c1.146,2.258,2.709,0.683,2.733,1.465
		c0.022,0.785-0.014,2.351-1.506,4.672c-1.497,2.319,0.568,3.052,0.568,3.052s-0.063,1.376-0.184,2.556
		c-0.125,1.18,0.557,2.286,0.676,4.052c0.121,1.761-0.331,3.324-0.83,4.211c-0.501,0.89,0.245,1.785,0.245,1.785
		s-0.781,1.468-1.128,2.449c-0.231,0.641-0.373,2.161-0.437,3.76h-11.9l0.226-35.659l2.744,0.017
		c0.684,0.003,1.239-0.547,1.244-1.229l0.167-27.29c0.004-0.683-0.545-1.24-1.229-1.245l-2.501-0.015l0.162-7.525l-4.043-0.025
		l0.039-6.458l-15.749-0.095l-0.038,6.457l-4.041-0.025l-0.165,7.524l-2.267-0.014c-0.685-0.003-1.243,0.548-1.247,1.231
		l-0.166,27.289c-0.005,0.682,0.545,1.24,1.229,1.244l2.77,0.017l-0.224,35.802h-60.015v-3.921c0-0.64-0.732-1.18-1.598-1.18
		s-1.596,0.54-1.596,1.18v3.921h-1.472v-3.921c0-1.421,1.374-2.571,3.068-2.571c1.696,0,3.07,1.15,3.07,2.571v3.242l1.509-11.081
		H441.18v-0.69h18.547c0.422,0,0.764-0.342,0.764-0.765v-1.995c0-0.422-0.342-0.764-0.764-0.764H441.18v-0.716h3.022h0.569h5.144
		h0.523h5.141h0.572h3.078c0.043-0.347,0.068-0.711,0.068-1.089c0-2.274-0.847-4.117-1.894-4.117c-0.684,0-1.281,0.79-1.614,1.968
		c-0.569-1.178-1.59-1.968-2.757-1.968c-1.238,0-2.313,0.884-2.857,2.182c-0.545-1.298-1.62-2.182-2.857-2.182
		c-1.172,0-2.195,0.795-2.763,1.981c-0.344-1.186-0.966-1.981-1.677-1.981c-0.731,0-1.362,0.85-1.699,2.095v-17.758h0.247
		c0.058-0.396,0.091-0.811,0.091-1.242c0-2.008-0.672-3.707-1.614-4.377c-0.006-0.112-0.011-0.22-0.011-0.307
		c0-2.592-0.976-4.692-2.181-4.692c-0.787,0-1.476,0.9-1.859,2.244c-0.655-1.345-1.83-2.244-3.175-2.244
		c-1.426,0-2.663,1.007-3.291,2.487c-0.626-1.48-1.864-2.487-3.29-2.487c-1.35,0-2.529,0.905-3.183,2.259
		c-0.397-1.354-1.112-2.259-1.932-2.259c-1.247,0-2.261,2.1-2.261,4.692c0,0.18,0.025,0.345,0.035,0.519
		c-0.418,0.387-0.77,0.965-1.018,1.685c-2.157-2.555-5.862-4.103-6.297-10.073v-0.132c-0.002,0.023-0.006,0.043-0.008,0.066
		c-0.002-0.023-0.006-0.042-0.008-0.066v0.131c-0.503,5.281-3.352,7.159-5.487,9.311c1.266,1.388,3.276,4.572,0.981,8.622
		l4.521-0.05h6.098c0.347-0.367,0.758-0.934,1.094-1.572v17.296h-15.066v2.051h-13.202v10.12
		c-7.638-4.973-16.471-7.817-25.888-7.817c-5.268,0-10.352,0.896-15.148,2.55l-0.156-5.686h0.234c0.513,0,0.928-0.414,0.928-0.928
		v-0.027c0-0.512-0.416-0.927-0.928-0.927h-0.285l-0.269-9.789h0.159c0.514,0,0.929-0.415,0.929-0.927v-0.029
		c0-0.512-0.415-0.926-0.929-0.926h-0.21l-0.317-11.536h0.865v-1.247h-5.437v1.247h0.868l-0.317,11.536h-0.212
		c-0.513,0-0.928,0.414-0.928,0.926v0.029c0,0.512,0.415,0.927,0.928,0.927h0.161l-0.269,9.789h-0.286
		c-0.513,0-0.929,0.415-0.929,0.927v0.027c0,0.514,0.415,0.928,0.929,0.928h0.235l-0.219,7.964
		c-1.754,0.859-3.462,1.816-5.112,2.881v-18.71l-0.293-0.069v-5.269h-1.579v4.9l-1.032-0.242v-8.8h-1.58v8.431l-1.394-0.326v24.5
		c-0.361,0.312-0.716,0.633-1.07,0.956v-25.436h-1.409v-2.708h-7.617v2.708h-1.404v25.749h-1.228v-34.906h-1.375h-21.774h-1.375
		v34.906h-1.228v-25.749h-1.404v-2.708h-7.617v2.708h-1.409v25.749h-1.07v-25.769l-1.394,0.326v-8.431h-1.58v8.8l-1.032,0.242v-4.9
		h-1.579v5.269l-0.293,0.069v24.393h-4.877l-0.454-16.528h0.235c0.513,0,0.929-0.414,0.929-0.928v-0.027
		c0-0.512-0.415-0.927-0.929-0.927h-0.286l-0.269-9.789h0.161c0.513,0,0.928-0.415,0.928-0.927v-0.029
		c0-0.512-0.415-0.926-0.928-0.926h-0.212l-0.317-11.536h0.868v-1.247h-5.437v1.247h0.865l-0.317,11.536h-0.21
		c-0.514,0-0.928,0.414-0.928,0.926v0.029c0,0.512,0.415,0.927,0.928,0.927h0.159l-0.269,9.789h-0.285
		c-0.513,0-0.928,0.415-0.928,0.927v0.027c0,0.514,0.416,0.928,0.928,0.928h0.234l-0.454,16.528h-7.376l0.65-0.52l-0.329-6.085
		h-3.658l-0.039-4.056l1.051-1.999l-1.367-0.538l-0.26-2.955l-1.451-0.337c0,0-0.948-9.759-0.718-9.847
		c0.235-0.089,0.567-0.405,0.567-0.405l-0.332-10.098l1.077-0.665c0,0-0.312-4.616-0.364-6.46c-0.051-1.845-1.44-9.709-1.44-9.709
		l1.737,0.498l2.205-3.768c0,0,0.601-0.223,1.07-0.391c0.459-0.177,0.753-0.912,1.507-1.537c0.747-0.629,0.947-1.314,0.947-1.314
		s0.566-0.447,0.856-1.09c0.293-0.637-0.481-1.298-0.481-1.298l1.264-2.877l-6.527-2.676l-2.328,3.221c0,0-0.178-0.283-0.404-0.615
		c-0.225-0.324-1.457-0.673-1.543-0.954c-0.085-0.275-1.027-3.706-1.798-6.166c-0.725-2.301-3.583-2.959-4.818-2.976
		c0.044-0.851,0.072-1.71,0.272-2.533c0.253-1.057,0.828-4.433,1.087-4.732c0.08-0.091,1.003-0.184,0.997-0.28l-0.379-1.328
		l0.152-0.679l4.909-0.207l-4.75-0.922l0.062-0.772l5.496-2.057l-5.831,0.869l-0.438-0.65l3.803-3.637l-4.883,3.115l-1.304-0.527
		l0.208-5.08l-1.297,5.146c0,0-1.458,0.055-1.823,0.187c-0.367,0.126-3.276-3.657-3.276-3.657l2.207,4.63
		c0,0-0.634,0.079-0.821,0.302c-0.14,0.165-2.619-0.023-3.906-0.133c0.012-0.096,0.024-0.192,0.04-0.295
		c0.161-1.008-0.238-3.873-0.698-5.82c-0.464-1.944-0.311-4.66,0.236-6.581c0.552-1.927-0.208-3.092-0.608-3.611
		c-0.403-0.513-0.625-1.022-0.288-1.434c0.331-0.407,0.066-1.011,0.388-1.049c0.325-0.039,1.484-0.659,1.484-0.659
		s0.27-1.469,0.286-2.248c0.019-0.785-2.404-0.853-2.404-0.853c0.005-0.664-0.106-0.837,0.487-1.137
		c0.562-0.283,1.188-0.711,1.26-1.393c0.104-1.117-1.091-1.102-1.325-1.991c-0.091-0.357,0.06-0.725,0.301-0.987
		c-0.86,1.195-2.516,0.947-3.442,1.921c-0.644,0.687-0.485,2.56,0.702,2.484c0,0-0.054,1.16-0.11,1.16
		c-1.215-0.082-2.396,0.274-2.396,0.274s-0.189,0.861-0.212,1.895c-0.022,1.03,1.298,1.101,1.293,1.392
		c-0.005,0.286,0.759,0.964,0.759,0.964s-0.053,0.66-0.39,0.858c-0.335,0.196,0.186,0.952,0.186,0.952s0.104,1.035-0.241,1.649
		c-0.346,0.608,0.664,1.667,0.881,3.032c0.219,1.367,0.148,2.642-0.236,4.908c-0.378,2.257,0.357,4.544,0.538,5.497
		c0.188,0.959,0.025,2.646,0.025,2.646s-0.902,1.631-2.247,4.448c-1.34,2.815,0.602,4.551,0.961,5.094
		c0.36,0.547-0.226,1.03-0.458,2.181c-0.233,1.15,1.604,1.933,1.604,1.933s0.322,0.379-0.149,1.199
		c-0.467,0.81,0.267,0.996,0.267,0.996s-0.414-0.01-0.858,1.423c-0.443,1.434,1.644,2.185,1.631,2.927
		c-0.019,0.741,0.958,3.076,0.958,3.076s-3.799,3.877-2.652,6.129c1.146,2.258,2.709,0.683,2.733,1.465
		c0.022,0.785-0.014,2.351-1.506,4.672c-1.497,2.319,0.567,3.053,0.567,3.053s-0.063,1.376-0.184,2.556
		c-0.125,1.18,0.557,2.286,0.676,4.052c0.121,1.761-0.331,3.324-0.83,4.211c-0.501,0.89,0.245,1.785,0.245,1.785
		s-0.781,1.468-1.128,2.449c-0.354,0.983-0.504,4.034-0.473,6.265c0.035,2.227-1.496,8.054-3.19,9.915
		c-1.693,1.864-0.456,1.891-0.456,1.891l-1.184,1.212l-0.129,2.226l-1.184,1.212l1.062,0.681l-0.079,3.336h-2.799l-2.15,1.747
		l0.046,4.859h-10.144v-3.921c0-0.64-0.732-1.18-1.598-1.18c-0.865,0-1.596,0.54-1.596,1.18v3.921h-1.472v-3.921
		c0-1.421,1.374-2.571,3.068-2.571c1.696,0,3.07,1.15,3.07,2.571v3.242l1.509-11.081h-18.037v-0.69H213.3
		c0.422,0,0.764-0.342,0.764-0.765v-1.995c0-0.422-0.342-0.764-0.764-0.764h-18.547v-0.716h3.022h0.569h5.144h0.523h5.141h0.572
		h3.078c0.043-0.347,0.068-0.711,0.068-1.089c0-2.274-0.847-4.117-1.894-4.117c-0.684,0-1.281,0.79-1.614,1.968
		c-0.569-1.178-1.59-1.968-2.757-1.968c-1.238,0-2.313,0.884-2.857,2.182c-0.545-1.298-1.62-2.182-2.857-2.182
		c-1.172,0-2.195,0.795-2.763,1.981c-0.344-1.186-0.966-1.981-1.677-1.981c-0.731,0-1.362,0.85-1.699,2.095v-17.758H195
		c0.058-0.396,0.091-0.811,0.091-1.242c0-2.008-0.673-3.707-1.614-4.377c-0.006-0.112-0.011-0.22-0.011-0.307
		c0-2.592-0.976-4.692-2.181-4.692c-0.787,0-1.476,0.9-1.86,2.244c-0.655-1.345-1.83-2.244-3.175-2.244
		c-1.426,0-2.663,1.007-3.291,2.487c-0.626-1.48-1.864-2.487-3.29-2.487c-1.35,0-2.529,0.905-3.183,2.259
		c-0.397-1.354-1.112-2.259-1.932-2.259c-1.247,0-2.261,2.1-2.261,4.692c0,0.18,0.025,0.345,0.035,0.519
		c-0.418,0.387-0.77,0.965-1.018,1.684c-2.157-2.555-5.862-4.103-6.297-10.073v-0.132c-0.002,0.023-0.006,0.043-0.008,0.066
		c-0.002-0.023-0.006-0.042-0.008-0.066v0.131c-0.503,5.281-3.352,7.159-5.487,9.311c1.266,1.388,3.276,4.572,0.981,8.622
		l4.521-0.05h6.098c0.347-0.367,0.758-0.934,1.094-1.572v17.296h-15.066v2.051h-13.202v15.696h-1.311v-4.301l-6.473,0.058v1.825
		c-6.482-4.813-14.207-7.617-22.51-7.617c-8.661,0-16.693,3.051-23.341,8.25l-0.405-14.742h0.234c0.513,0,0.928-0.414,0.928-0.928
		v-0.027c0-0.512-0.416-0.927-0.928-0.927h-0.285l-0.269-9.789h0.159c0.513,0,0.928-0.415,0.928-0.927v-0.029
		c0-0.512-0.415-0.926-0.928-0.926h-0.21l-0.317-11.536h0.865v-1.247h-5.437v1.247h0.868l-0.317,11.536h-0.212
		c-0.513,0-0.928,0.414-0.928,0.926v0.029c0,0.512,0.415,0.927,0.928,0.927h0.161l-0.269,9.789H84.58
		c-0.513,0-0.929,0.415-0.929,0.927v0.027c0,0.514,0.415,0.928,0.929,0.928h0.235l-0.453,16.528h-4.877V138.42l-0.293-0.069v-5.269
		h-1.579v4.9l-1.032-0.242v-8.8H75v8.431l-1.394-0.326v25.769h-1.07v-25.749h-1.409v-2.708H63.51v2.708h-1.404v25.749h-1.228
		v-34.906h-1.375H37.729h-1.375v34.906h-1.228v-25.749h-1.404v-2.708h-7.617v2.708h-1.409v25.749h-1.07v-25.769l-1.394,0.326v-8.431
		h-1.58v8.8l-1.032,0.242v-4.9h-1.579v5.269l-0.293,0.069v24.393h-4.877l-0.454-16.528h0.235c0.513,0,0.929-0.414,0.929-0.928
		v-0.027c0-0.512-0.415-0.927-0.929-0.927h-0.286l-0.269-9.789h0.161c0.513,0,0.928-0.415,0.928-0.927v-0.029
		c0-0.512-0.415-0.926-0.928-0.926h-0.212l-0.317-11.536h0.868v-1.247H7.159v1.247h0.865l-0.317,11.536h-0.21
		c-0.513,0-0.928,0.414-0.928,0.926v0.029c0,0.512,0.415,0.927,0.928,0.927h0.159l-0.269,9.789H7.102
		c-0.513,0-0.928,0.415-0.928,0.927v0.027c0,0.514,0.416,0.928,0.928,0.928h0.234l-0.454,16.528H-3.07v61.435h686.328v-61.435
		h-24.709V162.807z M608.172,131.972h-10.016v-2.574h10.016h3.168v2.574H608.172z M614.295,131.972v-2.574h12.126v2.574H614.295z
		 M642.559,131.972h-10.016h-3.168v-2.574h3.168h10.016V131.972z M535.663,91.922l-0.02,3.481c-0.001,0.285-0.275,0.521-0.606,0.515
		l-0.773-0.002c-0.334-0.002-0.603-0.239-0.602-0.528l0.021-3.479c0.001-0.288,0.273-0.521,0.608-0.519l0.772,0.003
		C535.396,91.395,535.665,91.63,535.663,91.922z M532.452,91.901l-0.019,3.482c-0.005,0.288-0.277,0.519-0.611,0.517l-0.769-0.004
		c-0.333-0.001-0.603-0.235-0.602-0.524l0.022-3.482c0.003-0.288,0.273-0.521,0.606-0.518l0.771,0.003
		C532.185,91.375,532.456,91.612,532.452,91.901z M529.241,91.881l-0.021,3.481c-0.001,0.288-0.274,0.52-0.605,0.517l-0.773-0.003
		c-0.333-0.001-0.603-0.238-0.603-0.525l0.021-3.481c0.004-0.291,0.276-0.523,0.609-0.521l0.772,0.006
		C528.975,91.358,529.244,91.592,529.241,91.881z M526.032,91.861l-0.02,3.48c-0.002,0.291-0.275,0.523-0.61,0.52l-0.771-0.004
		c-0.332-0.002-0.602-0.239-0.6-0.527l0.018-3.481c0.005-0.287,0.275-0.52,0.611-0.517l0.772,0.004
		C525.764,91.337,526.035,91.573,526.032,91.861z M520.842,91.831c0.001-0.288,0.273-0.52,0.606-0.519l0.772,0.005
		c0.333,0.001,0.603,0.237,0.601,0.525l-0.021,3.482c0,0.288-0.275,0.52-0.605,0.518l-0.773-0.005
		c-0.333-0.002-0.602-0.235-0.6-0.525L520.842,91.831z M536.894,91.928c0.004-0.29,0.272-0.521,0.608-0.517l0.771,0.004
		c0.333,0,0.605,0.236,0.602,0.524l-0.02,3.482c-0.004,0.289-0.275,0.521-0.609,0.519l-0.769-0.005
		c-0.334-0.002-0.605-0.237-0.602-0.524L536.894,91.928z M517.63,91.811c0.002-0.29,0.274-0.523,0.608-0.52l0.772,0.005
		c0.333,0.002,0.601,0.237,0.598,0.527l-0.019,3.482c-0.003,0.287-0.274,0.518-0.608,0.517l-0.772-0.005
		c-0.332-0.001-0.603-0.236-0.6-0.526L517.63,91.811z M516.423,100.903c0.003-0.651,0.535-1.177,1.186-1.173l21.765,0.134
		c0.649,0.003,1.173,0.534,1.17,1.186l-0.128,20.743c-0.003,0.651-0.533,1.176-1.185,1.17l-21.766-0.132
		c-0.651-0.003-1.174-0.533-1.171-1.186L516.423,100.903z M457.381,141.92c0.729,0,1.319,1.283,1.319,2.869
		c0,0.263-0.017,0.516-0.048,0.758h-2.412h-0.133c-0.029-0.242-0.047-0.495-0.047-0.758c0-0.329,0.026-0.643,0.074-0.936
		C456.313,142.727,456.802,141.92,457.381,141.92z M452.992,141.92c1.247,0,2.257,1.283,2.257,2.869
		c0,0.263-0.031,0.516-0.083,0.758h-4.347c-0.052-0.242-0.082-0.495-0.082-0.758C450.737,143.203,451.747,141.92,452.992,141.92z
		 M447.279,141.92c1.246,0,2.257,1.283,2.257,2.869c0,0.263-0.031,0.516-0.083,0.758h-4.347c-0.052-0.242-0.084-0.495-0.084-0.758
		C445.023,143.203,446.033,141.92,447.279,141.92z M442.855,141.92c0.635,0,1.168,0.909,1.322,2.14
		c-0.059,0.31-0.094,0.634-0.094,0.971c0,0.176,0.011,0.347,0.029,0.516h-2.576c-0.031-0.242-0.049-0.495-0.049-0.758
		C441.487,143.203,442.1,141.92,442.855,141.92z M289.378,141.878c0,0,2.606,0.79,2.86,2.66h0.025v0.169v5.565h-5.771v-5.565v-0.169
		h0.041C287,142.535,289.378,141.878,289.378,141.878z M286.532,155.104c0.468-2.004,2.845-2.659,2.845-2.659s2.606,0.79,2.86,2.659
		h0.025v0.17v5.565h-5.771v-5.565v-0.17H286.532z M291.638,135.033c0.382,0,0.711,0.824,0.879,2.025h-1.757
		C290.928,135.857,291.257,135.033,291.638,135.033z M289.249,135.033c0.382,0,0.71,0.824,0.877,2.025h-1.756
		C288.538,135.857,288.868,135.033,289.249,135.033z M286.858,135.033c0.383,0,0.712,0.824,0.879,2.025h-1.756
		C286.148,135.857,286.477,135.033,286.858,135.033z M278.67,155.249v-0.16h0.026c0.232-1.869,1.397-2.487,1.397-2.487
		s1.273,0.743,1.402,2.487h0.019v0.16v5.211h-2.844L278.67,155.249L278.67,155.249z M280.093,142.707c0,0,1.273,0.745,1.402,2.491
		h0.019v0.16v5.21h-2.844v-5.21v-0.16h0.026C278.928,143.327,280.093,142.707,280.093,142.707z M237.542,79.535
		c0,0,0.116,1.004,0.605,1.421c0.489,0.422,0.664,0.787,0.664,0.787l-0.02,2.033c-0.446-0.527-0.799-1.044-0.999-1.594
		c-0.391-1.072-1.671-1.513-1.654-2.248c0.013-0.698-0.287-1.884-0.57-2.911c0.565-0.014,1.483-0.04,1.483-0.04
		s0.065,1.227,0.28,1.643C237.549,79.038,237.542,79.535,237.542,79.535z M237.227,75.307l-0.158,0.901l-1.654,0.366
		c-0.363-0.819-1.116-0.919-1.116-0.919s-0.032-0.294-0.012-0.774L237.227,75.307z M210.955,141.92c0.729,0,1.319,1.283,1.319,2.869
		c0,0.263-0.017,0.516-0.048,0.758h-2.412h-0.133c-0.029-0.242-0.047-0.495-0.047-0.758c0-0.329,0.026-0.643,0.074-0.936
		C209.886,142.727,210.375,141.92,210.955,141.92z M206.565,141.92c1.246,0,2.257,1.283,2.257,2.869
		c0,0.263-0.031,0.516-0.083,0.758h-4.347c-0.052-0.242-0.082-0.495-0.082-0.758C204.31,143.203,205.32,141.92,206.565,141.92z
		 M200.852,141.92c1.246,0,2.257,1.283,2.257,2.869c0,0.263-0.031,0.516-0.083,0.758h-4.347c-0.052-0.242-0.084-0.495-0.084-0.758
		C198.596,143.203,199.606,141.92,200.852,141.92z M196.428,141.92c0.635,0,1.168,0.909,1.322,2.14
		c-0.059,0.31-0.094,0.634-0.094,0.971c0,0.176,0.011,0.347,0.029,0.516h-2.576c-0.031-0.242-0.049-0.495-0.049-0.758
		C195.06,143.203,195.673,141.92,196.428,141.92z M74.994,145.358v-0.16h0.019c0.128-1.746,1.402-2.491,1.402-2.491
		s1.165,0.62,1.397,2.491h0.026v0.16v5.21h-2.844V145.358z M74.994,155.249v-0.16h0.019c0.128-1.744,1.402-2.487,1.402-2.487
		s1.165,0.619,1.397,2.487h0.026v0.16v5.211h-2.844V155.249z M67.13,141.878c0,0,2.377,0.656,2.845,2.66h0.041v0.169v5.565h-5.771
		v-5.565v-0.169h0.025C64.524,142.668,67.13,141.878,67.13,141.878z M64.27,155.104c0.254-1.869,2.86-2.659,2.86-2.659
		s2.377,0.656,2.845,2.659h0.041v0.17v5.565h-5.771v-5.565v-0.17H64.27z M69.65,135.033c0.381,0,0.71,0.824,0.877,2.025h-1.756
		C68.938,135.857,69.267,135.033,69.65,135.033z M67.258,135.033c0.382,0,0.711,0.824,0.879,2.025h-1.756
		C66.548,135.857,66.877,135.033,67.258,135.033z M64.87,135.033c0.381,0,0.71,0.824,0.878,2.025h-1.757
		C64.158,135.857,64.487,135.033,64.87,135.033z M30.102,141.878c0,0,2.606,0.79,2.86,2.66h0.025v0.169v5.565h-5.771v-5.565v-0.169
		h0.041C27.724,142.535,30.102,141.878,30.102,141.878z M27.257,155.104c0.468-2.004,2.845-2.659,2.845-2.659s2.606,0.79,2.86,2.659
		h0.025v0.17v5.565h-5.771v-5.565v-0.17H27.257z M32.363,135.033c0.382,0,0.711,0.824,0.879,2.025h-1.757
		C31.652,135.857,31.981,135.033,32.363,135.033z M29.974,135.033c0.382,0,0.71,0.824,0.877,2.025h-1.756
		C29.262,135.857,29.592,135.033,29.974,135.033z M27.582,135.033c0.383,0,0.712,0.824,0.879,2.025h-1.756
		C26.873,135.857,27.201,135.033,27.582,135.033z M19.395,155.249v-0.16h0.026c0.232-1.869,1.397-2.487,1.397-2.487
		s1.273,0.743,1.402,2.487h0.019v0.16v5.211h-2.844C19.395,160.46,19.395,155.249,19.395,155.249z M20.817,142.707
		c0,0,1.273,0.745,1.402,2.491h0.019v0.16v5.21h-2.844v-5.21v-0.16h0.026C19.653,143.327,20.817,142.707,20.817,142.707z
		 M635.13,157.291h21.444v2.756H635.13V157.291z M610.603,157.291h19.508v2.756h-19.508V157.291z M605.585,157.291v2.756h-21.444
		v-2.756H605.585z M605.585,162.794v0.013h-21.444v-0.013H605.585z M610.603,162.794h19.508v0.013h-19.508V162.794z M635.13,162.794
		h21.444v0.013H635.13V162.794z M558.733,109.12c0,0,0.116,1.004,0.605,1.421c0.489,0.422,0.664,0.787,0.664,0.787l-0.02,2.033
		c-0.446-0.527-0.799-1.044-0.999-1.594c-0.391-1.072-1.671-1.513-1.653-2.248c0.013-0.698-0.287-1.885-0.57-2.911
		c0.565-0.014,1.483-0.04,1.483-0.04s0.065,1.227,0.281,1.643C558.74,108.622,558.733,109.12,558.733,109.12z M558.418,104.891
		l-0.158,0.901l-1.654,0.366c-0.363-0.819-1.116-0.919-1.116-0.919s-0.032-0.294-0.012-0.774L558.418,104.891z M574.148,157.396
		c2.096,0.874,4.468,1.768,7.044,2.574v-5.033c-1.986-0.153-4.016-0.35-6.062-0.573c-0.017-0.261-0.039-0.602-0.064-0.999
		c2.4,0.265,4.774,0.486,7.101,0.665v8.776h-7.841L574.148,157.396z M529.517,162.807h-3.162l0.206-33.427
		c0.002-0.378,0.26-0.682,0.576-0.679l2.016,0.014c0.319,0.001,0.573,0.308,0.569,0.683L529.517,162.807z M535.327,162.807h-3.161
		l0.203-33.392c0.002-0.376,0.26-0.681,0.578-0.679l2.016,0.013c0.317,0.003,0.571,0.309,0.568,0.685L535.327,162.807z
		 M520.748,129.345c0.004-0.377,0.264-0.682,0.581-0.679l2.015,0.013c0.316,0.001,0.57,0.31,0.568,0.684l-0.205,33.445h-3.163
		L520.748,129.345z M445.636,156.315c1.695,0,3.068,1.15,3.068,2.571v3.921h-1.471v-3.921c0-0.64-0.732-1.18-1.598-1.18
		c-0.865,0-1.597,0.54-1.597,1.18v3.921h-1.472v-3.921C442.567,157.465,443.941,156.315,445.636,156.315z M435.782,144.838
		c-1.15,0-2.082,5.218-2.082,11.657c0,0.289,0.003,0.576,0.007,0.86h-0.67c0.003-0.284,0.006-0.571,0.006-0.86
		c0-6.439-0.93-11.657-2.081-11.657c-1.149,0-2.081,5.218-2.081,11.657c0,0.289,0.003,0.576,0.006,0.86h-1.057V140.92h10.733v16.435
		h-0.707c0.005-0.284,0.007-0.571,0.007-0.86C437.863,150.056,436.931,144.838,435.782,144.838z M430.254,123.734
		c0-1.807,1.329-3.271,2.967-3.271c1.639,0,2.968,1.464,2.968,3.271c0,0.299-0.04,0.589-0.109,0.865h-5.718
		C430.294,124.323,430.254,124.033,430.254,123.734z M426.188,120.516c1.408,0.255,2.487,1.592,2.487,3.218
		c0,0.299-0.041,0.589-0.109,0.865h-5.719c-0.069-0.275-0.108-0.565-0.108-0.865c0-1.575,1.011-2.889,2.356-3.2L426.188,120.516z
		 M440.731,123.734c0,0.299-0.023,0.589-0.063,0.865h-3.173h-0.174c-0.04-0.275-0.064-0.565-0.064-0.865
		c0-0.374,0.036-0.733,0.097-1.068c0.235-1.281,0.878-2.203,1.64-2.203C439.954,120.463,440.731,121.927,440.731,123.734z
		 M437.683,115.78c0.84,0,1.521,1.463,1.521,3.269c0,0.104-0.014,0.198-0.019,0.299c-0.053-0.006-0.104-0.03-0.159-0.03
		c-0.441,0-0.854,0.219-1.212,0.597h-1.443h-0.153c-0.036-0.277-0.055-0.566-0.055-0.866c0-0.373,0.031-0.732,0.085-1.067
		C436.453,116.701,437.016,115.78,437.683,115.78z M432.629,115.78c1.435,0,2.599,1.463,2.599,3.269
		c0,0.262-0.037,0.512-0.084,0.756c-0.565-0.307-1.196-0.487-1.868-0.487c-0.75,0-1.45,0.222-2.062,0.597h-1.089
		c-0.061-0.277-0.096-0.566-0.096-0.866C430.03,117.243,431.193,115.78,432.629,115.78z M426.048,115.78
		c1.434,0,2.599,1.463,2.599,3.269c0,0.3-0.036,0.589-0.095,0.866h-0.729c-0.612-0.375-1.312-0.597-2.063-0.597
		c-0.753,0-1.458,0.219-2.071,0.597h-0.145c-0.06-0.277-0.095-0.566-0.095-0.866C423.449,117.243,424.613,115.78,426.048,115.78z
		 M419.376,119.049c0-1.806,0.707-3.269,1.577-3.269c0.732,0,1.346,1.036,1.523,2.44c-0.068,0.355-0.108,0.723-0.108,1.105
		c0,0.2,0.013,0.396,0.033,0.589h-1.224c-0.372-0.379-0.8-0.597-1.257-0.597c-0.178,0-0.351,0.033-0.519,0.095
		C419.393,119.29,419.376,119.175,419.376,119.049z M419.471,120.559l0.812-0.007c0.655,0.269,1.175,1.178,1.344,2.352
		c-0.077,0.355-0.123,0.724-0.123,1.105c0,0.201,0.015,0.396,0.038,0.59h-2.354c-0.044-0.286-0.111-0.552-0.189-0.809h2.09
		c0.001-0.036,0.002-0.072,0.002-0.107c0-1.36-0.588-2.51-1.284-2.51c-0.539,0-1.01,0.693-1.197,1.636
		c-0.098-0.188-0.209-0.366-0.324-0.541C418.522,121.42,418.95,120.784,419.471,120.559z M412.109,149.906
		c0-1.161,0.883-2.103,1.971-2.103c1.089,0,1.971,0.941,1.971,2.103v12.099h-3.942L412.109,149.906L412.109,149.906z
		 M406.495,149.906c0-1.161,0.883-2.103,1.971-2.103c1.089,0,1.971,0.941,1.971,2.103v12.099h-3.942L406.495,149.906
		L406.495,149.906z M334.27,145.358v-0.16h0.019c0.128-1.746,1.402-2.491,1.402-2.491s1.165,0.62,1.397,2.491h0.026v0.16v5.21
		h-2.844L334.27,145.358L334.27,145.358z M334.27,155.249v-0.16h0.019c0.128-1.744,1.402-2.487,1.402-2.487s1.165,0.619,1.397,2.487
		h0.026v0.16v2.992c-0.968,0.679-1.919,1.385-2.844,2.132L334.27,155.249L334.27,155.249z M328.926,135.033
		c0.381,0,0.71,0.824,0.877,2.025h-1.756C328.214,135.857,328.542,135.033,328.926,135.033z M323.522,150.273v-5.565v-0.169h0.025
		c0.254-1.871,2.86-2.66,2.86-2.66s2.377,0.656,2.845,2.66h0.041v0.169v5.565H323.522z M329.293,155.104v0.17v5.565h-5.771v-5.565
		v-0.17h0.025c0.254-1.869,2.86-2.659,2.86-2.659s2.377,0.656,2.845,2.659H329.293z M326.534,135.033
		c0.382,0,0.711,0.824,0.879,2.025h-1.756C325.824,135.857,326.152,135.033,326.534,135.033z M324.145,135.033
		c0.381,0,0.71,0.824,0.878,2.025h-1.757C323.434,135.857,323.763,135.033,324.145,135.033z M301.398,147.37v-0.396h0.096
		c0.951-4.08,5.277-5.774,6.398-6.149c1.121,0.375,5.447,2.069,6.398,6.149h0.096v0.396v13.044h-12.987V147.37H301.398z
		 M199.209,156.315c1.695,0,3.068,1.15,3.068,2.571v3.921h-1.471v-3.921c0-0.64-0.732-1.18-1.598-1.18
		c-0.865,0-1.597,0.54-1.597,1.18v3.921h-1.472v-3.921C196.14,157.465,197.514,156.315,199.209,156.315z M189.355,144.838
		c-1.15,0-2.082,5.218-2.082,11.657c0,0.289,0.003,0.576,0.007,0.86h-0.67c0.003-0.284,0.006-0.571,0.006-0.86
		c0-6.439-0.93-11.657-2.081-11.657c-1.149,0-2.081,5.218-2.081,11.657c0,0.289,0.003,0.576,0.006,0.86h-1.057V140.92h10.733v16.435
		h-0.707c0.005-0.284,0.007-0.571,0.007-0.86C191.436,150.056,190.504,144.838,189.355,144.838z M183.827,123.734
		c0-1.807,1.329-3.271,2.967-3.271c1.639,0,2.968,1.464,2.968,3.271c0,0.299-0.04,0.589-0.109,0.865h-5.718
		C183.867,124.323,183.827,124.033,183.827,123.734z M179.761,120.516c1.408,0.255,2.487,1.592,2.487,3.218
		c0,0.299-0.041,0.589-0.109,0.865h-5.719c-0.069-0.275-0.108-0.565-0.108-0.865c0-1.575,1.011-2.889,2.356-3.2L179.761,120.516z
		 M194.304,123.734c0,0.299-0.023,0.589-0.063,0.865h-3.173h-0.174c-0.04-0.275-0.064-0.565-0.064-0.865
		c0-0.374,0.036-0.733,0.097-1.068c0.235-1.281,0.878-2.203,1.64-2.203C193.527,120.463,194.304,121.927,194.304,123.734z
		 M191.256,115.78c0.84,0,1.521,1.463,1.521,3.269c0,0.104-0.014,0.198-0.019,0.299c-0.053-0.006-0.104-0.03-0.159-0.03
		c-0.441,0-0.854,0.219-1.212,0.597h-1.443h-0.153c-0.036-0.277-0.055-0.566-0.055-0.866c0-0.373,0.031-0.732,0.085-1.067
		C190.026,116.701,190.589,115.78,191.256,115.78z M186.202,115.78c1.435,0,2.599,1.463,2.599,3.269
		c0,0.262-0.037,0.512-0.084,0.756c-0.565-0.307-1.196-0.487-1.868-0.487c-0.75,0-1.45,0.222-2.062,0.597h-1.089
		c-0.061-0.277-0.096-0.566-0.096-0.866C183.603,117.243,184.766,115.78,186.202,115.78z M179.621,115.78
		c1.434,0,2.599,1.463,2.599,3.269c0,0.3-0.036,0.589-0.095,0.866h-0.729c-0.612-0.375-1.312-0.597-2.063-0.597
		c-0.753,0-1.458,0.219-2.071,0.597h-0.145c-0.06-0.277-0.095-0.566-0.095-0.866C177.022,117.243,178.186,115.78,179.621,115.78z
		 M172.949,119.049c0-1.806,0.707-3.269,1.577-3.269c0.732,0,1.346,1.036,1.523,2.44c-0.068,0.355-0.108,0.723-0.108,1.105
		c0,0.2,0.013,0.396,0.033,0.589h-1.224c-0.372-0.379-0.8-0.597-1.257-0.597c-0.178,0-0.352,0.033-0.519,0.095
		C172.966,119.29,172.949,119.175,172.949,119.049z M173.044,120.559l0.812-0.007c0.655,0.269,1.175,1.178,1.344,2.352
		c-0.077,0.355-0.123,0.724-0.123,1.105c0,0.201,0.015,0.396,0.038,0.59h-2.354c-0.044-0.286-0.111-0.552-0.189-0.809h2.09
		c0.001-0.036,0.002-0.072,0.002-0.107c0-1.36-0.588-2.51-1.284-2.51c-0.539,0-1.01,0.693-1.197,1.636
		c-0.098-0.188-0.209-0.366-0.324-0.541C172.095,121.42,172.523,120.784,173.044,120.559z M165.682,149.906
		c0-1.161,0.883-2.103,1.971-2.103c1.089,0,1.971,0.941,1.971,2.103v12.099h-3.942L165.682,149.906L165.682,149.906z
		 M160.069,149.906c0-1.161,0.883-2.103,1.971-2.103c1.089,0,1.971,0.941,1.971,2.103v12.099h-3.942L160.069,149.906
		L160.069,149.906z M42.122,147.37v-0.396h0.096c0.951-4.08,5.277-5.774,6.398-6.149c1.121,0.375,5.447,2.069,6.398,6.149h0.096
		v0.396v13.044H42.122V147.37z"/>
</g>
</svg>
